<?xml version="1.0" encoding="UTF-8" standalone="no"?>
<!-- Created with Inkscape (http://www.inkscape.org/) -->

<svg
   xmlns:dc="http://purl.org/dc/elements/1.1/"
   xmlns:cc="http://creativecommons.org/ns#"
   xmlns:rdf="http://www.w3.org/1999/02/22-rdf-syntax-ns#"
   xmlns:svg="http://www.w3.org/2000/svg"
   xmlns="http://www.w3.org/2000/svg"
   xmlns:sodipodi="http://sodipodi.sourceforge.net/DTD/sodipodi-0.dtd"
   xmlns:inkscape="http://www.inkscape.org/namespaces/inkscape"
   width="24in"
   height="18in"
   viewBox="0 0 2160 1620"
   id="svg2"
   version="1.1"
   inkscape:version="0.91 r13725"
   sodipodi:docname="3p0mm_clear.svg">
  <defs
     id="defs4">
    <marker
       orient="auto"
       id="DistanceX"
       style="overflow:visible"
       refX="0.0"
       refY="0.0">
      <path
         id="path3343"
         d="M 3,-3 L -3,3 M 0,-5 L  0,5"
         style="stroke:#000000; stroke-width:0.5" />
    </marker>
    <pattern
       id="Hatch"
       x="0"
       y="0"
       patternUnits="userSpaceOnUse"
       width="8"
       height="8">
      <path
         id="path3346"
         d="M8 4 l-4,4"
         stroke-width="0.25"
         stroke="#000000"
         linecap="square" />
      <path
         id="path3348"
         d="M6 2 l-4,4"
         stroke-width="0.25"
         stroke="#000000"
         linecap="square" />
      <path
         id="path3350"
         d="M4 0 l-4,4"
         stroke-width="0.25"
         stroke="#000000"
         linecap="square" />
    </pattern>
    <symbol
       id="*Model_Space" />
    <symbol
       id="*Paper_Space" />
  </defs>
  <sodipodi:namedview
     id="base"
     pagecolor="#ffffff"
     bordercolor="#666666"
     borderopacity="1.0"
     inkscape:pageopacity="0.0"
     inkscape:pageshadow="2"
     inkscape:zoom="0.35"
     inkscape:cx="-46.428571"
     inkscape:cy="869.77995"
     inkscape:document-units="px"
     inkscape:current-layer="layer1"
     showgrid="false"
     units="in"
     inkscape:window-width="1600"
     inkscape:window-height="837"
     inkscape:window-x="-8"
     inkscape:window-y="-8"
     inkscape:window-maximized="1" />
  <metadata
     id="metadata7">
    <rdf:RDF>
      <cc:Work
         rdf:about="">
        <dc:format>image/svg+xml</dc:format>
        <dc:type
           rdf:resource="http://purl.org/dc/dcmitype/StillImage" />
        <dc:title></dc:title>
      </cc:Work>
    </rdf:RDF>
  </metadata>
  <g
     inkscape:label="Layer 1"
     inkscape:groupmode="layer"
     id="layer1"
     transform="translate(0,567.63785)">
    <path
       id="path3358"
       d="m 66.142854,-434.7807 a 9,9 0 0 0 -9,9"
       style="fill:none;stroke:#000000;stroke-linecap:round;stroke-opacity:1;stroke-width:0.001;stroke-miterlimit:4;stroke-dasharray:none"
       inkscape:connector-curvature="0" />
    <path
       id="path3360"
       d="m 156.14285,-524.7807 a 9,9 0 0 0 -9,9"
       style="fill:none;stroke:#000000;stroke-linecap:round;stroke-opacity:1;stroke-width:0.001;stroke-miterlimit:4;stroke-dasharray:none"
       inkscape:connector-curvature="0" />
    <path
       id="path3362"
       d="m 1047.1429,-515.7807 a 9,9 0 0 0 -9,-9"
       style="fill:none;stroke:#000000;stroke-linecap:round;stroke-opacity:1;stroke-width:0.001;stroke-miterlimit:4;stroke-dasharray:none"
       inkscape:connector-curvature="0" />
    <path
       id="path3364"
       d="m 1137.1429,-425.7807 a 9,9 0 0 0 -9,-9"
       style="fill:none;stroke:#000000;stroke-linecap:round;stroke-opacity:1;stroke-width:0.001;stroke-miterlimit:4;stroke-dasharray:none"
       inkscape:connector-curvature="0" />
    <path
       id="path3366"
       d="m 1128.1429,465.2193 a 9,9 0 0 0 9,-9"
       style="fill:none;stroke:#000000;stroke-linecap:round;stroke-opacity:1;stroke-width:0.001;stroke-miterlimit:4;stroke-dasharray:none"
       inkscape:connector-curvature="0" />
    <path
       id="path3368"
       d="m 1038.1429,555.21929 a 9,9 0 0 0 9,-9"
       style="fill:none;stroke:#000000;stroke-linecap:round;stroke-opacity:1;stroke-width:0.001;stroke-miterlimit:4;stroke-dasharray:none"
       inkscape:connector-curvature="0" />
    <path
       id="path3370"
       d="m 147.14285,546.21929 a 9,9 0 0 0 9,9"
       style="fill:none;stroke:#000000;stroke-linecap:round;stroke-opacity:1;stroke-width:0.001;stroke-miterlimit:4;stroke-dasharray:none"
       inkscape:connector-curvature="0" />
    <path
       id="path3372"
       d="m 57.142854,456.2193 a 9,9 0 0 0 9,9"
       style="fill:none;stroke:#000000;stroke-linecap:round;stroke-opacity:1;stroke-width:0.001;stroke-miterlimit:4;stroke-dasharray:none"
       inkscape:connector-curvature="0" />
    <path
       id="path3374"
       d="m 1128.1429,465.2193 -81,0"
       style="fill:none;stroke:#000000;stroke-linecap:round;stroke-opacity:1;stroke-width:0.001;stroke-miterlimit:4;stroke-dasharray:none"
       inkscape:connector-curvature="0" />
    <path
       id="path3376"
       d="m 1047.1429,465.2193 0,80.99999"
       style="fill:none;stroke:#000000;stroke-linecap:round;stroke-opacity:1;stroke-width:0.001;stroke-miterlimit:4;stroke-dasharray:none"
       inkscape:connector-curvature="0" />
    <path
       id="path3378"
       d="m 1038.1429,555.21929 -882.00005,0"
       style="fill:none;stroke:#000000;stroke-linecap:round;stroke-opacity:1;stroke-width:0.001;stroke-miterlimit:4;stroke-dasharray:none"
       inkscape:connector-curvature="0" />
    <path
       id="path3380"
       d="m 147.14285,546.21929 0,-80.99999"
       style="fill:none;stroke:#000000;stroke-linecap:round;stroke-opacity:1;stroke-width:0.001;stroke-miterlimit:4;stroke-dasharray:none"
       inkscape:connector-curvature="0" />
    <path
       id="path3382"
       d="m 147.14285,465.2193 -80.999996,0"
       style="fill:none;stroke:#000000;stroke-linecap:round;stroke-opacity:1;stroke-width:0.001;stroke-miterlimit:4;stroke-dasharray:none"
       inkscape:connector-curvature="0" />
    <path
       id="path3384"
       d="m 57.142854,456.2193 0,-882"
       style="fill:none;stroke:#000000;stroke-linecap:round;stroke-opacity:1;stroke-width:0.001;stroke-miterlimit:4;stroke-dasharray:none"
       inkscape:connector-curvature="0" />
    <path
       id="path3386"
       d="m 66.142854,-434.7807 80.999996,0"
       style="fill:none;stroke:#000000;stroke-linecap:round;stroke-opacity:1;stroke-width:0.001;stroke-miterlimit:4;stroke-dasharray:none"
       inkscape:connector-curvature="0" />
    <path
       id="path3388"
       d="m 147.14285,-434.7807 0,-81"
       style="fill:none;stroke:#000000;stroke-linecap:round;stroke-opacity:1;stroke-width:0.001;stroke-miterlimit:4;stroke-dasharray:none"
       inkscape:connector-curvature="0" />
    <path
       id="path3390"
       d="m 1047.1429,-515.7807 0,81"
       style="fill:none;stroke:#000000;stroke-linecap:round;stroke-opacity:1;stroke-width:0.001;stroke-miterlimit:4;stroke-dasharray:none"
       inkscape:connector-curvature="0" />
    <path
       id="path3392"
       d="m 156.14285,-524.7807 882.00005,0"
       style="fill:none;stroke:#000000;stroke-linecap:round;stroke-opacity:1;stroke-width:0.001;stroke-miterlimit:4;stroke-dasharray:none"
       inkscape:connector-curvature="0" />
    <path
       id="path3394"
       d="m 1047.1429,-434.7807 81,0"
       style="fill:none;stroke:#000000;stroke-linecap:round;stroke-opacity:1;stroke-width:0.001;stroke-miterlimit:4;stroke-dasharray:none"
       inkscape:connector-curvature="0" />
    <path
       id="path3396"
       d="m 1137.1429,-425.7807 0,882"
       style="fill:none;stroke:#000000;stroke-linecap:round;stroke-opacity:1;stroke-width:0.001;stroke-miterlimit:4;stroke-dasharray:none"
       inkscape:connector-curvature="0" />
    <path
       id="path3398"
       d="m 206.99285,-479.7807 a 14.85,14.85 0 1 0 -29.7,0 14.85,14.85 0 0 0 29.7,0 z"
       style="fill:none;stroke:#000000;stroke-linecap:round;stroke-opacity:1;stroke-width:0.001;stroke-miterlimit:4;stroke-dasharray:none"
       inkscape:connector-curvature="0" />
    <path
       id="path3400"
       d="m 1016.9929,-479.7807 a 14.85,14.85 0 1 0 -29.70005,0 14.85,14.85 0 0 0 29.70005,0 z"
       style="fill:none;stroke:#000000;stroke-linecap:round;stroke-opacity:1;stroke-width:0.001;stroke-miterlimit:4;stroke-dasharray:none"
       inkscape:connector-curvature="0" />
    <path
       id="path3402"
       d="m 206.99285,510.21929 a 14.85,14.85 0 1 0 -29.7,0 14.85,14.85 0 0 0 29.7,0 z"
       style="fill:none;stroke:#000000;stroke-linecap:round;stroke-opacity:1;stroke-width:0.001;stroke-miterlimit:4;stroke-dasharray:none"
       inkscape:connector-curvature="0" />
    <path
       id="path3404"
       d="m 1016.9929,510.21929 a 14.85,14.85 0 1 0 -29.70005,0 14.85,14.85 0 0 0 29.70005,0 z"
       style="fill:none;stroke:#000000;stroke-linecap:round;stroke-opacity:1;stroke-width:0.001;stroke-miterlimit:4;stroke-dasharray:none"
       inkscape:connector-curvature="0" />
    <path
       id="path3406"
       d="m 604.25285,375.2193 a 7.11,7.11 0 1 0 -14.22,0 7.11,7.11 0 0 0 14.22,0 z"
       style="fill:none;stroke:#000000;stroke-linecap:round;stroke-opacity:1;stroke-width:0.001;stroke-miterlimit:4;stroke-dasharray:none"
       inkscape:connector-curvature="0" />
    <path
       id="path3408"
       d="m 916.02185,-164.7807 a 7.11,7.11 0 1 0 -14.22,0 7.11,7.11 0 0 0 14.22,0 z"
       style="fill:none;stroke:#000000;stroke-linecap:round;stroke-opacity:1;stroke-width:0.001;stroke-miterlimit:4;stroke-dasharray:none"
       inkscape:connector-curvature="0" />
    <path
       id="path3410"
       d="m 602.36285,-344.78071 a 5.22,5.22 0 1 0 -10.44,0 5.22,5.22 0 0 0 10.44,0 z"
       style="fill:none;stroke:#000000;stroke-linecap:round;stroke-opacity:1;stroke-width:0.001;stroke-miterlimit:4;stroke-dasharray:none"
       inkscape:connector-curvature="0" />
    <path
       id="path3412"
       d="m 292.48385,-164.7807 a 7.11,7.11 0 1 0 -14.22,0 7.11,7.11 0 1 0 14.22,0 z"
       style="fill:none;stroke:#000000;stroke-linecap:round;stroke-opacity:1;stroke-width:0.001;stroke-miterlimit:4;stroke-dasharray:none"
       inkscape:connector-curvature="0" />
    <path
       id="path3414"
       d="m 109.25285,-389.7807 a 7.11,7.11 0 1 0 -14.219996,0 7.11,7.11 0 1 0 14.219996,0 z"
       style="fill:none;stroke:#000000;stroke-linecap:round;stroke-opacity:1;stroke-width:0.001;stroke-miterlimit:4;stroke-dasharray:none"
       inkscape:connector-curvature="0" />
    <path
       id="path3416"
       d="m 1099.2529,-389.7807 a 7.11,7.11 0 1 0 -14.22,0 7.11,7.11 0 0 0 14.22,0 z"
       style="fill:none;stroke:#000000;stroke-linecap:round;stroke-opacity:1;stroke-width:0.001;stroke-miterlimit:4;stroke-dasharray:none"
       inkscape:connector-curvature="0" />
    <path
       id="path3418"
       d="m 109.25285,420.2193 a 7.11,7.11 0 1 0 -14.219996,0 7.11,7.11 0 1 0 14.219996,0 z"
       style="fill:none;stroke:#000000;stroke-linecap:round;stroke-opacity:1;stroke-width:0.001;stroke-miterlimit:4;stroke-dasharray:none"
       inkscape:connector-curvature="0" />
    <path
       id="path3420"
       d="m 1099.2529,420.2193 a 7.11,7.11 0 1 0 -14.22,0 7.11,7.11 0 0 0 14.22,0 z"
       style="fill:none;stroke:#000000;stroke-linecap:round;stroke-opacity:1;stroke-width:0.001;stroke-miterlimit:4;stroke-dasharray:none"
       inkscape:connector-curvature="0" />
  </g>
</svg>
