999
dxfrw 0.6.3
  0
SECTION
  2
HEADER
  9
$ACADVER
  1
AC1021
  9
$DWGCODEPAGE
  3
ANSI_1252
  9
$INSBASE
 10
0
 20
0
 30
0
  9
$EXTMIN
 10
-0.9000000000000002
 20
-0.9
 30
0
  9
$EXTMAX
 10
3.4
 20
0.9000000000000001
 30
0
  9
$LIMMIN
 10
0
 20
0
  9
$LIMMAX
 10
420
 20
297
  9
$ORTHOMODE
 70
    0
  9
$REGENMODE
 70
    1
  9
$FILLMODE
 70
    1
  9
$QTEXTMODE
 70
    0
  9
$MIRRTEXT
 70
    1
  9
$LTSCALE
 40
1
  9
$ATTMODE
 70
    1
  9
$TEXTSIZE
 40
2.5
  9
$TRACEWID
 40
1
  9
$TEXTSTYLE
  7
Standard
  9
$CLAYER
  8
sawtooth
  9
$CELTYPE
  6
ByLayer
  9
$CECOLOR
 62
  256
  9
$CELTSCALE
 40
1
  9
$DISPSILH
 70
    0
  9
$DIMSCALE
 40
1
  9
$DIMASZ
 40
2.5
  9
$DIMEXO
 40
0.625
  9
$DIMDLI
 40
3.75
  9
$DIMRND
 40
0
  9
$DIMDLE
 40
0
  9
$DIMEXE
 40
1.25
  9
$DIMTP
 40
0
  9
$DIMTM
 40
0
  9
$DIMTXT
 40
2.5
  9
$DIMCEN
 40
2.5
  9
$DIMTSZ
 40
0
  9
$DIMTOL
 70
    0
  9
$DIMLIM
 70
    0
  9
$DIMTIH
 70
    0
  9
$DIMTOH
 70
    0
  9
$DIMSE1
 70
    0
  9
$DIMSE2
 70
    0
  9
$DIMTAD
 70
    1
  9
$DIMZIN
 70
    8
  9
$DIMBLK
  1

  9
$DIMASO
 70
    1
  9
$DIMSHO
 70
    1
  9
$DIMPOST
  1

  9
$DIMAPOST
  1

  9
$DIMALT
 70
    0
  9
$DIMALTD
 70
    3
  9
$DIMALTF
 40
0.03937007874
  9
$DIMLFAC
 40
1
  9
$DIMTOFL
 70
    1
  9
$DIMTVP
 40
0
  9
$DIMTIX
 70
    0
  9
$DIMSOXD
 70
    0
  9
$DIMSAH
 70
    0
  9
$DIMBLK1
  1

  9
$DIMBLK2
  1

  9
$DIMSTYLE
  2
ISO-25
  9
$DIMCLRD
 70
    0
  9
$DIMCLRE
 70
    0
  9
$DIMCLRT
 70
    0
  9
$DIMTFAC
 40
1
  9
$DIMGAP
 40
0.625
  9
$DIMJUST
 70
    0
  9
$DIMSD1
 70
    0
  9
$DIMSD2
 70
    0
  9
$DIMTOLJ
 70
    0
  9
$DIMTZIN
 70
    8
  9
$DIMALTZ
 70
    0
  9
$DIMALTTZ
 70
    0
  9
$DIMUPT
 70
    0
  9
$DIMDEC
 70
    2
  9
$DIMTDEC
 70
    2
  9
$DIMALTU
 70
    2
  9
$DIMALTTD
 70
    3
  9
$DIMTXSTY
  7
Standard
  9
$DIMAUNIT
 70
    0
  9
$DIMADEC
 70
    0
  9
$DIMALTRND
 40
0
  9
$DIMAZIN
 70
    0
  9
$DIMDSEP
 70
   44
  9
$DIMATFIT
 70
    3
  9
$DIMFRAC
 70
    0
  9
$DIMLDRBLK
  1

  9
$DIMLUNIT
 70
    2
  9
$DIMLWD
 70
   -2
  9
$DIMLWE
 70
   -2
  9
$DIMTMOVE
 70
    0
  9
$DIMFXL
 40
1
  9
$DIMFXLON
 70
    0
  9
$DIMJOGANG
 40
0.785398163397
  9
$DIMTFILL
 70
    0
  9
$DIMTFILLCLR
 70
    0
  9
$DIMARCSYM
 70
    0
  9
$DIMLTYPE
  6

  9
$DIMLTEX1
  6

  9
$DIMLTEX2
  6

  9
$LUNITS
 70
    2
  9
$LUPREC
 70
    4
  9
$SKETCHINC
 40
1
  9
$FILLETRAD
 40
10
  9
$AUNITS
 70
    0
  9
$AUPREC
 70
    2
  9
$MENU
  1
.
  9
$ELEVATION
 40
0
  9
$PELEVATION
 40
0
  9
$THICKNESS
 40
0
  9
$LIMCHECK
 70
    0
  9
$CHAMFERA
 40
0
  9
$CHAMFERB
 40
0
  9
$CHAMFERC
 40
0
  9
$CHAMFERD
 40
0
  9
$SKPOLY
 70
    0
  9
$USRTIMER
 70
    1
  9
$ANGBASE
 50
0
  9
$ANGDIR
 70
    0
  9
$PDMODE
 70
    0
  9
$PDSIZE
 40
0
  9
$PLINEWID
 40
0
  9
$SPLFRAME
 70
    0
  9
$SPLINETYPE
 70
    6
  9
$SPLINESEGS
 70
    8
  9
$HANDSEED
  5
20000
  9
$SURFTAB1
 70
    6
  9
$SURFTAB2
 70
    6
  9
$SURFTYPE
 70
    6
  9
$SURFU
 70
    6
  9
$SURFV
 70
    6
  9
$UCSBASE
  2

  9
$UCSNAME
  2

  9
$UCSORG
 10
0
 20
0
 30
0
  9
$UCSXDIR
 10
1
 20
0
 30
0
  9
$UCSYDIR
 10
0
 20
1
 30
0
  9
$UCSORTHOREF
  2

  9
$UCSORTHOVIEW
 70
    0
  9
$UCSORGTOP
 10
0
 20
0
 30
0
  9
$UCSORGBOTTOM
 10
0
 20
0
 30
0
  9
$UCSORGLEFT
 10
0
 20
0
 30
0
  9
$UCSORGRIGHT
 10
0
 20
0
 30
0
  9
$UCSORGFRONT
 10
0
 20
0
 30
0
  9
$UCSORGBACK
 10
0
 20
0
 30
0
  9
$PUCSBASE
  2

  9
$PUCSNAME
  2

  9
$PUCSORG
 10
0
 20
0
 30
0
  9
$PUCSXDIR
 10
1
 20
0
 30
0
  9
$PUCSYDIR
 10
0
 20
1
 30
0
  9
$PUCSORTHOREF
  2

  9
$PUCSORTHOVIEW
 70
    0
  9
$PUCSORGTOP
 10
0
 20
0
 30
0
  9
$PUCSORGBOTTOM
 10
0
 20
0
 30
0
  9
$PUCSORGLEFT
 10
0
 20
0
 30
0
  9
$PUCSORGRIGHT
 10
0
 20
0
 30
0
  9
$PUCSORGFRONT
 10
0
 20
0
 30
0
  9
$PUCSORGBACK
 10
0
 20
0
 30
0
  9
$USERI1
 70
    0
  9
$USERI2
 70
    0
  9
$USERI3
 70
    0
  9
$USERI4
 70
    0
  9
$USERI5
 70
    0
  9
$USERR1
 40
0
  9
$USERR2
 40
0
  9
$USERR3
 40
0
  9
$USERR4
 40
0
  9
$USERR5
 40
0
  9
$WORLDVIEW
 70
    1
  9
$SHADEDGE
 70
    3
  9
$SHADEDIF
 70
   70
  9
$TILEMODE
 70
    1
  9
$MAXACTVP
 70
   64
  9
$PINSBASE
 10
0
 20
0
 30
0
  9
$PLIMCHECK
 70
    0
  9
$PEXTMIN
 10
1e+20
 20
1e+20
 30
1e+20
  9
$PEXTMAX
 10
-1e+20
 20
-1e+20
 30
-1e+20
  9
$GRIDMODE
 70
    1
  9
$SNAPSTYLE
 70
    0
  9
$PLIMMIN
 10
0
 20
0
  9
$PLIMMAX
 10
420
 20
297
  9
$UNITMODE
 70
    0
  9
$VISRETAIN
 70
    1
  9
$PLINEGEN
 70
    0
  9
$PSLTSCALE
 70
    1
  9
$TREEDEPTH
 70
 3020
  9
$CMLSTYLE
  2
Standard
  9
$CMLJUST
 70
    0
  9
$CMLSCALE
 40
20
  9
$PROXYGRAPHICS
 70
    1
  9
$MEASUREMENT
 70
    1
  9
$CELWEIGHT
370
   -1
  9
$ENDCAPS
280
    0
  9
$JOINSTYLE
280
    0
  9
$LWDISPLAY
290
    0
  9
$INSUNITS
 70
    1
  9
$HYPERLINKBASE
  1

  9
$STYLESHEET
  1

  9
$XEDIT
290
    1
  9
$CEPSNTYPE
380
    0
  9
$PSTYLEMODE
290
    1
  9
$EXTNAMES
290
    1
  9
$PSVPSCALE
 40
0
  9
$OLESTARTUP
290
    0
  9
$SORTENTS
280
  127
  9
$INDEXCTL
280
    0
  9
$HIDETEXT
280
    1
  9
$XCLIPFRAME
290
    0
  9
$HALOGAP
280
    0
  9
$OBSCOLOR
 70
  257
  9
$OBSLTYPE
280
    0
  9
$INTERSECTIONDISPLAY
280
    0
  9
$INTERSECTIONCOLOR
 70
  257
  9
$DIMASSOC
280
    2
  9
$PROJECTNAME
  1

  9
$CAMERADISPLAY
290
    0
  9
$LENSLENGTH
 40
50
  9
$CAMERAHEIGHT
 40
0
  9
$STEPSPERSEC
 40
24
  9
$STEPSIZE
 40
100
  9
$3DDWFPREC
 40
2
  9
$PSOLWIDTH
 40
0.005
  9
$PSOLHEIGHT
 40
0.08
  9
$LOFTANG1
 40
1.570796326795
  9
$LOFTANG2
 40
1.570796326795
  9
$LOFTMAG1
 40
0
  9
$LOFTMAG2
 40
0
  9
$LOFTPARAM
 70
    7
  9
$LOFTNORMALS
280
    1
  9
$LATITUDE
 40
37.795
  9
$LONGITUDE
 40
-122.394
  9
$NORTHDIRECTION
 40
0
  9
$TIMEZONE
 70
-8000
  9
$LIGHTGLYPHDISPLAY
280
    1
  9
$TILEMODELIGHTSYNCH
280
    1
  9
$SOLIDHIST
280
    0
  9
$SHOWHIST
280
    1
  9
$DWFFRAME
280
    2
  9
$DGNFRAME
280
    2
  9
$REALWORLDSCALE
290
    1
  9
$INTERFERECOLOR
 62
  256
  9
$CSHADOW
280
    0
  9
$SHADOWPLANELOCATION
 40
0
  0
ENDSEC
  0
SECTION
  2
CLASSES
  0
ENDSEC
  0
SECTION
  2
TABLES
  0
TABLE
  2
VPORT
  5
8
330
0
100
AcDbSymbolTable
 70
    1
  0
VPORT
  5
31
330
2
100
AcDbSymbolTableRecord
100
AcDbViewportTableRecord
  2
*ACTIVE
 70
    0
 10
0
 20
0
 11
1
 21
1
 12
2.282958948892846
 22
1.076333003200101
 13
0
 23
0
 14
10
 24
10
 15
10
 25
10
 16
0
 26
0
 36
1
 17
0
 27
0
 37
0
 40
4.226023265196186
 41
1.62645218945487
 42
50
 43
0
 44
0
 50
0
 51
0
 71
    0
 72
  100
 73
    1
 74
    3
 75
    0
 76
    1
 77
    0
 78
    0
281
    0
 65
    1
110
0
120
0
130
0
111
1
121
0
131
0
112
0
122
1
132
0
 79
    0
146
0
348
10020
 60
    7
 61
    5
292
1
282
    1
141
0
142
0
 63
  250
421
3358443
  0
ENDTAB
  0
TABLE
  2
LTYPE
  5
5
330
0
100
AcDbSymbolTable
 70
    4
  0
LTYPE
  5
14
330
5
100
AcDbSymbolTableRecord
100
AcDbLinetypeTableRecord
  2
ByBlock
 70
    0
  3

 72
   65
 73
    0
 40
0
  0
LTYPE
  5
15
330
5
100
AcDbSymbolTableRecord
100
AcDbLinetypeTableRecord
  2
ByLayer
 70
    0
  3

 72
   65
 73
    0
 40
0
  0
LTYPE
  5
16
330
5
100
AcDbSymbolTableRecord
100
AcDbLinetypeTableRecord
  2
Continuous
 70
    0
  3
Solid line
 72
   65
 73
    0
 40
0
  0
LTYPE
  5
32
330
5
100
AcDbSymbolTableRecord
100
AcDbLinetypeTableRecord
  2
DOT
 70
    0
  3
Dot . . . . . . . . . . . . . . . . . . . . . .
 72
   65
 73
    2
 40
6.35
 49
0
 74
    0
 49
-6.35
 74
    0
  0
LTYPE
  5
33
330
5
100
AcDbSymbolTableRecord
100
AcDbLinetypeTableRecord
  2
DOTTINY
 70
    0
  3
Dot (.15x) .....................................
 72
   65
 73
    2
 40
0.9525
 49
0
 74
    0
 49
-0.9525
 74
    0
  0
LTYPE
  5
34
330
5
100
AcDbSymbolTableRecord
100
AcDbLinetypeTableRecord
  2
DOT2
 70
    0
  3
Dot (.5x) .....................................
 72
   65
 73
    2
 40
3.175
 49
0
 74
    0
 49
-3.175
 74
    0
  0
LTYPE
  5
35
330
5
100
AcDbSymbolTableRecord
100
AcDbLinetypeTableRecord
  2
DOTX2
 70
    0
  3
Dot (2x) .  .  .  .  .  .  .  .  .  .  .  .  .
 72
   65
 73
    2
 40
12.7
 49
0
 74
    0
 49
-12.7
 74
    0
  0
LTYPE
  5
36
330
5
100
AcDbSymbolTableRecord
100
AcDbLinetypeTableRecord
  2
DASHED
 70
    0
  3
Dashed _ _ _ _ _ _ _ _ _ _ _ _ _ _ _ _ _
 72
   65
 73
    2
 40
19.05
 49
12.7
 74
    0
 49
-6.35
 74
    0
  0
LTYPE
  5
37
330
5
100
AcDbSymbolTableRecord
100
AcDbLinetypeTableRecord
  2
DASHEDTINY
 70
    0
  3
Dashed (.15x) _ _ _ _ _ _ _ _ _ _ _ _ _ _ _ _ _
 72
   65
 73
    2
 40
2.8575
 49
1.905
 74
    0
 49
-0.9525
 74
    0
  0
LTYPE
  5
38
330
5
100
AcDbSymbolTableRecord
100
AcDbLinetypeTableRecord
  2
DASHED2
 70
    0
  3
Dashed (.5x) _ _ _ _ _ _ _ _ _ _ _ _ _ _ _ _ _
 72
   65
 73
    2
 40
9.524999999999999
 49
6.35
 74
    0
 49
-3.175
 74
    0
  0
LTYPE
  5
39
330
5
100
AcDbSymbolTableRecord
100
AcDbLinetypeTableRecord
  2
DASHEDX2
 70
    0
  3
Dashed (2x) ____  ____  ____  ____  ____  ___
 72
   65
 73
    2
 40
38.09999999999999
 49
25.4
 74
    0
 49
-12.7
 74
    0
  0
LTYPE
  5
3A
330
5
100
AcDbSymbolTableRecord
100
AcDbLinetypeTableRecord
  2
DASHDOT
 70
    0
  3
Dash dot __ . __ . __ . __ . __ . __ . __ . __
 72
   65
 73
    4
 40
25.4
 49
12.7
 74
    0
 49
-6.35
 74
    0
 49
0
 74
    0
 49
-6.35
 74
    0
  0
LTYPE
  5
3B
330
5
100
AcDbSymbolTableRecord
100
AcDbLinetypeTableRecord
  2
DASHDOTTINY
 70
    0
  3
Dash dot (.15x) _._._._._._._._._._._._._._._.
 72
   65
 73
    4
 40
3.81
 49
1.905
 74
    0
 49
-0.9525
 74
    0
 49
0
 74
    0
 49
-0.9525
 74
    0
  0
LTYPE
  5
3C
330
5
100
AcDbSymbolTableRecord
100
AcDbLinetypeTableRecord
  2
DASHDOT2
 70
    0
  3
Dash dot (.5x) _._._._._._._._._._._._._._._.
 72
   65
 73
    4
 40
12.7
 49
6.35
 74
    0
 49
-3.175
 74
    0
 49
0
 74
    0
 49
-3.175
 74
    0
  0
LTYPE
  5
3D
330
5
100
AcDbSymbolTableRecord
100
AcDbLinetypeTableRecord
  2
DASHDOTX2
 70
    0
  3
Dash dot (2x) ____  .  ____  .  ____  .  ___
 72
   65
 73
    4
 40
50.8
 49
25.4
 74
    0
 49
-12.7
 74
    0
 49
0
 74
    0
 49
-12.7
 74
    0
  0
LTYPE
  5
3E
330
5
100
AcDbSymbolTableRecord
100
AcDbLinetypeTableRecord
  2
DIVIDE
 70
    0
  3
Divide ____ . . ____ . . ____ . . ____ . . ____
 72
   65
 73
    6
 40
31.75
 49
12.7
 74
    0
 49
-6.35
 74
    0
 49
0
 74
    0
 49
-6.35
 74
    0
 49
0
 74
    0
 49
-6.35
 74
    0
  0
LTYPE
  5
3F
330
5
100
AcDbSymbolTableRecord
100
AcDbLinetypeTableRecord
  2
DIVIDETINY
 70
    0
  3
Divide (.15x) __..__..__..__..__..__..__..__.._
 72
   65
 73
    6
 40
4.7625
 49
1.905
 74
    0
 49
-0.9525
 74
    0
 49
0
 74
    0
 49
-0.9525
 74
    0
 49
0
 74
    0
 49
-0.9525
 74
    0
  0
LTYPE
  5
40
330
5
100
AcDbSymbolTableRecord
100
AcDbLinetypeTableRecord
  2
DIVIDE2
 70
    0
  3
Divide (.5x) __..__..__..__..__..__..__..__.._
 72
   65
 73
    6
 40
15.875
 49
6.35
 74
    0
 49
-3.175
 74
    0
 49
0
 74
    0
 49
-3.175
 74
    0
 49
0
 74
    0
 49
-3.175
 74
    0
  0
LTYPE
  5
41
330
5
100
AcDbSymbolTableRecord
100
AcDbLinetypeTableRecord
  2
DIVIDEX2
 70
    0
  3
Divide (2x) ________  .  .  ________  .  .  _
 72
   65
 73
    6
 40
63.5
 49
25.4
 74
    0
 49
-12.7
 74
    0
 49
0
 74
    0
 49
-12.7
 74
    0
 49
0
 74
    0
 49
-12.7
 74
    0
  0
LTYPE
  5
42
330
5
100
AcDbSymbolTableRecord
100
AcDbLinetypeTableRecord
  2
BORDER
 70
    0
  3
Border __ __ . __ __ . __ __ . __ __ . __ __ .
 72
   65
 73
    6
 40
44.45
 49
12.7
 74
    0
 49
-6.35
 74
    0
 49
12.7
 74
    0
 49
-6.35
 74
    0
 49
0
 74
    0
 49
-6.35
 74
    0
  0
LTYPE
  5
43
330
5
100
AcDbSymbolTableRecord
100
AcDbLinetypeTableRecord
  2
BORDERTINY
 70
    0
  3
Border (.15x) __.__.__.__.__.__.__.__.__.__.__.
 72
   65
 73
    6
 40
6.6675
 49
1.905
 74
    0
 49
-0.9525
 74
    0
 49
1.905
 74
    0
 49
-0.9525
 74
    0
 49
0
 74
    0
 49
-0.9525
 74
    0
  0
LTYPE
  5
44
330
5
100
AcDbSymbolTableRecord
100
AcDbLinetypeTableRecord
  2
BORDER2
 70
    0
  3
Border (.5x) __.__.__.__.__.__.__.__.__.__.__.
 72
   65
 73
    6
 40
22.225
 49
6.35
 74
    0
 49
-3.175
 74
    0
 49
6.35
 74
    0
 49
-3.175
 74
    0
 49
0
 74
    0
 49
-3.175
 74
    0
  0
LTYPE
  5
45
330
5
100
AcDbSymbolTableRecord
100
AcDbLinetypeTableRecord
  2
BORDERX2
 70
    0
  3
Border (2x) ____  ____  .  ____  ____  .  ___
 72
   65
 73
    6
 40
88.89999999999999
 49
25.4
 74
    0
 49
-12.7
 74
    0
 49
25.4
 74
    0
 49
-12.7
 74
    0
 49
0
 74
    0
 49
-12.7
 74
    0
  0
LTYPE
  5
46
330
5
100
AcDbSymbolTableRecord
100
AcDbLinetypeTableRecord
  2
CENTER
 70
    0
  3
Center ____ _ ____ _ ____ _ ____ _ ____ _ ____
 72
   65
 73
    4
 40
50.8
 49
31.75
 74
    0
 49
-6.35
 74
    0
 49
6.35
 74
    0
 49
-6.35
 74
    0
  0
LTYPE
  5
47
330
5
100
AcDbSymbolTableRecord
100
AcDbLinetypeTableRecord
  2
CENTERTINY
 70
    0
  3
Center (.15x) ___ _ ___ _ ___ _ ___ _ ___ _ ___
 72
   65
 73
    4
 40
7.619999999999999
 49
4.7625
 74
    0
 49
-0.9525
 74
    0
 49
0.9525
 74
    0
 49
-0.9525
 74
    0
  0
LTYPE
  5
48
330
5
100
AcDbSymbolTableRecord
100
AcDbLinetypeTableRecord
  2
CENTER2
 70
    0
  3
Center (.5x) ___ _ ___ _ ___ _ ___ _ ___ _ ___
 72
   65
 73
    4
 40
28.575
 49
19.05
 74
    0
 49
-3.175
 74
    0
 49
3.175
 74
    0
 49
-3.175
 74
    0
  0
LTYPE
  5
49
330
5
100
AcDbSymbolTableRecord
100
AcDbLinetypeTableRecord
  2
CENTERX2
 70
    0
  3
Center (2x) ________  __  ________  __  _____
 72
   65
 73
    4
 40
101.6
 49
63.5
 74
    0
 49
-12.7
 74
    0
 49
12.7
 74
    0
 49
-12.7
 74
    0
  0
ENDTAB
  0
TABLE
  2
LAYER
  5
2
330
0
100
AcDbSymbolTable
 70
    1
  0
LAYER
  5
10
330
2
100
AcDbSymbolTableRecord
100
AcDbLayerTableRecord
  2
0
 70
    0
 62
    7
  6
CONTINUOUS
370
   -3
390
F
  0
LAYER
  5
4A
330
2
100
AcDbSymbolTableRecord
100
AcDbLayerTableRecord
  2
Defpoints
 70
    0
 62
    7
  6
CONTINUOUS
290
0
370
   -3
390
F
  0
LAYER
  5
4B
330
2
100
AcDbSymbolTableRecord
100
AcDbLayerTableRecord
  2
sawtooth
 70
    0
 62
    7
  6
CONTINUOUS
370
   -3
390
F
  0
ENDTAB
  0
TABLE
  2
STYLE
  5
3
330
0
100
AcDbSymbolTable
 70
    3
  0
STYLE
  5
4C
330
2
100
AcDbSymbolTableRecord
100
AcDbTextStyleTableRecord
  2
Standard
 70
    0
 40
0
 41
1
 50
0
 71
    0
 42
1
  3
txt
  4

  0
ENDTAB
  0
TABLE
  2
VIEW
  5
6
330
0
100
AcDbSymbolTable
 70
    0
  0
ENDTAB
  0
TABLE
  2
UCS
  5
7
330
0
100
AcDbSymbolTable
 70
    0
  0
ENDTAB
  0
TABLE
  2
APPID
  5
9
330
0
100
AcDbSymbolTable
 70
    1
  0
APPID
  5
12
330
9
100
AcDbSymbolTableRecord
100
AcDbRegAppTableRecord
  2
ACAD
 70
    0
  0
APPID
  5
4D
330
9
100
AcDbSymbolTableRecord
100
AcDbRegAppTableRecord
  2
LibreCad
 70
    0
  0
ENDTAB
  0
TABLE
  2
DIMSTYLE
  5
A
330
0
100
AcDbSymbolTable
 70
    1
100
AcDbDimStyleTable
 71
    1
  0
DIMSTYLE
105
4E
330
A
100
AcDbSymbolTableRecord
100
AcDbDimStyleTableRecord
  2
Standard
 70
    0
 40
1
 41
2.5
 42
0.625
 43
0.38
 44
1.25
 45
0
 46
0
 47
0
 48
0
 49
1
140
2.5
141
0.09
142
0
143
25.4
144
1
145
0
146
1
147
0.625
148
0
 71
    0
 72
    0
 73
    0
 74
    1
 75
    0
 76
    0
 77
    0
 78
    8
 79
    0
170
    0
171
    2
172
    0
173
    0
174
    0
175
    0
176
    0
177
    0
178
    0
179
    0
271
    2
272
    4
273
    2
274
    2
275
    0
276
    0
277
    2
278
   44
279
    0
280
    0
281
    0
282
    0
283
    1
284
    0
285
    0
286
    0
288
    0
289
    3
340
Standard
341

371
   -2
372
   -2
  0
ENDTAB
  0
TABLE
  2
BLOCK_RECORD
  5
1
330
0
100
AcDbSymbolTable
 70
    2
  0
BLOCK_RECORD
  5
1F
330
1
100
AcDbSymbolTableRecord
100
AcDbBlockTableRecord
  2
*Model_Space
 70
    0
280
    1
281
    0
  0
BLOCK_RECORD
  5
1E
330
1
100
AcDbSymbolTableRecord
100
AcDbBlockTableRecord
  2
*Paper_Space
 70
    0
280
    1
281
    0
  0
ENDTAB
  0
ENDSEC
  0
SECTION
  2
BLOCKS
  0
BLOCK
  5
20
330
1F
100
AcDbEntity
  8
0
100
AcDbBlockBegin
  2
*Model_Space
 70
    0
 10
0
 20
0
 30
0
  3
*Model_Space
  1

  0
ENDBLK
  5
21
330
1F
100
AcDbEntity
  8
0
100
AcDbBlockEnd
  0
BLOCK
  5
1C
330
1B
100
AcDbEntity
  8
0
100
AcDbBlockBegin
  2
*Paper_Space
 70
    0
 10
0
 20
0
 30
0
  3
*Paper_Space
  1

  0
ENDBLK
  5
1D
330
1F
100
AcDbEntity
  8
0
100
AcDbBlockEnd
  0
ENDSEC
  0
SECTION
  2
ENTITIES
  0
LINE
  5
4F
100
AcDbEntity
  8
sawtooth
  6
ByLayer
 62
  256
370
   -1
100
AcDbLine
 10
0.4803149606299212
 20
0
 11
0.5195754895058033
 21
0.01067009137191941
  0
LINE
  5
50
100
AcDbEntity
  8
sawtooth
  6
ByLayer
 62
  256
370
   -1
100
AcDbLine
 10
0.5195754895058033
 20
0.01067009137191941
 11
0.4799100007887551
 21
0.01971934450888033
  0
LINE
  5
51
100
AcDbEntity
  8
sawtooth
  6
ByLayer
 62
  256
370
   -1
100
AcDbLine
 10
0.4799100007887551
 20
0.01971934450888033
 11
0.5186993676901174
 21
0.0319922819278758
  0
LINE
  5
52
100
AcDbEntity
  8
sawtooth
  6
ByLayer
 62
  256
370
   -1
100
AcDbLine
 10
0.5186993676901174
 20
0.0319922819278758
 11
0.4786958041191603
 21
0.03940543774193221
  0
LINE
  5
53
100
AcDbEntity
  8
sawtooth
  6
ByLayer
 62
  256
370
   -1
100
AcDbLine
 10
0.4786958041191603
 20
0.03940543774193221
 11
0.5169486013983263
 21
0.05326052625908389
  0
LINE
  5
54
100
AcDbEntity
  8
sawtooth
  6
ByLayer
 62
  256
370
   -1
100
AcDbLine
 10
0.5169486013983263
 20
0.05326052625908389
 11
0.4766744180314022
 21
0.05902508449250047
  0
LINE
  5
55
100
AcDbEntity
  8
sawtooth
  6
ByLayer
 62
  256
370
   -1
100
AcDbLine
 10
0.4766744180314022
 20
0.05902508449250047
 11
0.5143261428184633
 21
0.07443896129421666
  0
LINE
  5
56
100
AcDbEntity
  8
sawtooth
  6
ByLayer
 62
  256
370
   -1
100
AcDbLine
 10
0.5143261428184633
 20
0.07443896129421666
 11
0.4738492510397104
 21
0.07854520159773121
  0
LINE
  5
57
100
AcDbEntity
  8
sawtooth
  6
ByLayer
 62
  256
370
   -1
100
AcDbLine
 10
0.4738492510397104
 20
0.07854520159773121
 11
0.5108364140089569
 21
0.09549187540073732
  0
LINE
  5
58
100
AcDbEntity
  8
sawtooth
  6
ByLayer
 62
  256
370
   -1
100
AcDbLine
 10
0.5108364140089569
 20
0.09549187540073732
 11
0.4702250670147534
 21
0.09793287372426851
  0
LINE
  5
59
100
AcDbEntity
  8
sawtooth
  6
ByLayer
 62
  256
370
   -1
100
AcDbLine
 10
0.4702250670147534
 20
0.09793287372426851
 11
0.5064852994420395
 21
0.1163837686027905
  0
LINE
  5
5A
100
AcDbEntity
  8
sawtooth
  6
ByLayer
 62
  256
370
   -1
100
AcDbLine
 10
0.5064852994420395
 20
0.1163837686027905
 11
0.4658079771506738
 21
0.1171554088709528
  0
LINE
  5
5B
100
AcDbEntity
  8
sawtooth
  6
ByLayer
 62
  256
370
   -1
100
AcDbLine
 10
0.4658079771506738
 20
0.1171554088709528
 11
0.5012801360811971
 21
0.1370794124421926
  0
LINE
  5
5C
100
AcDbEntity
  8
sawtooth
  6
ByLayer
 62
  256
370
   -1
100
AcDbLine
 10
0.5012801360811971
 20
0.1370794124421926
 11
0.4606054296602339
 21
0.1361803934949304
  0
LINE
  5
5D
100
AcDbEntity
  8
sawtooth
  6
ByLayer
 62
  256
370
   -1
100
AcDbLine
 10
0.4606054296602339
 20
0.1361803934949304
 11
0.4952297010093885
 21
0.1575439093815816
  0
LINE
  5
5E
100
AcDbEntity
  8
sawtooth
  6
ByLayer
 62
  256
370
   -1
100
AcDbLine
 10
0.4952297010093885
 20
0.1575439093815816
 11
0.454626197215443
 21
0.1549757471682195
  0
LINE
  5
5F
100
AcDbEntity
  8
sawtooth
  6
ByLayer
 62
  256
370
   -1
100
AcDbLine
 10
0.454626197215443
 20
0.1549757471682195
 11
0.4883441966288973
 21
0.1777427516495601
  0
LINE
  5
60
100
AcDbEntity
  8
sawtooth
  6
ByLayer
 62
  256
370
   -1
100
AcDbLine
 10
0.4883441966288973
 20
0.1777427516495601
 11
0.4478803621548481
 21
0.1735097766725695
  0
LINE
  5
61
100
AcDbEntity
  8
sawtooth
  6
ByLayer
 62
  256
370
   -1
100
AcDbLine
 10
0.4478803621548481
 20
0.1735097766725695
 11
0.4806352334577746
 21
0.1976418794286039
  0
LINE
  5
62
100
AcDbEntity
  8
sawtooth
  6
ByLayer
 62
  256
370
   -1
100
AcDbLine
 10
0.4806352334577746
 20
0.1976418794286039
 11
0.4403792994824302
 21
0.1917512294413959
  0
LINE
  5
63
100
AcDbEntity
  8
sawtooth
  6
ByLayer
 62
  256
370
   -1
100
AcDbLine
 10
0.4403792994824302
 20
0.1917512294413959
 11
0.4721158105518785
 21
0.2172077382876197
  0
LINE
  5
64
100
AcDbEntity
  8
sawtooth
  6
ByLayer
 62
  256
370
   -1
100
AcDbLine
 10
0.4721158105518785
 20
0.2172077382876197
 11
0.4321356576867745
 21
0.2096693462586785
  0
LINE
  5
65
100
AcDbEntity
  8
sawtooth
  6
ByLayer
 62
  256
370
   -1
100
AcDbLine
 10
0.4321356576867745
 20
0.2096693462586785
 11
0.462800293585525
 21
0.236407335762307
  0
LINE
  5
66
100
AcDbEntity
  8
sawtooth
  6
ByLayer
 62
  256
370
   -1
100
AcDbLine
 10
0.462800293585525
 20
0.236407335762307
 11
0.4231633374128572
 21
0.2272339131259576
  0
LINE
  5
67
100
AcDbEntity
  8
sawtooth
  6
ByLayer
 62
  256
370
   -1
100
AcDbLine
 10
0.4231633374128572
 20
0.2272339131259576
 11
0.4527043906277118
 21
0.255208296987916
  0
LINE
  5
68
100
AcDbEntity
  8
sawtooth
  6
ByLayer
 62
  256
370
   -1
100
AcDbLine
 10
0.4527043906277118
 20
0.255208296987916
 11
0.4134774680224129
 21
0.2444153122099705
  0
LINE
  5
69
100
AcDbEntity
  8
sawtooth
  6
ByLayer
 62
  256
370
   -1
100
AcDbLine
 10
0.4134774680224129
 20
0.2444153122099705
 11
0.4418451256547601
 21
0.2735789192905943
  0
LINE
  5
6A
100
AcDbEntity
  8
sawtooth
  6
ByLayer
 62
  256
370
   -1
100
AcDbLine
 10
0.4418451256547601
 20
0.2735789192905943
 11
0.4030943820824088
 21
0.261184571785019
  0
LINE
  5
6B
100
AcDbEntity
  8
sawtooth
  6
ByLayer
 62
  256
370
   -1
100
AcDbLine
 10
0.4030943820824088
 20
0.261184571785019
 11
0.4302408098440392
 21
0.2914882256452661
  0
LINE
  5
6C
100
AcDbEntity
  8
sawtooth
  6
ByLayer
 62
  256
370
   -1
100
AcDbLine
 10
0.4302408098440392
 20
0.2914882256452661
 11
0.3920315878246419
 21
0.2775134150858528
  0
LINE
  5
6D
100
AcDbEntity
  8
sawtooth
  6
ByLayer
 62
  256
370
   -1
100
AcDbLine
 10
0.3920315878246419
 20
0.2775134150858528
 11
0.4179110106971792
 21
0.3089060169099049
  0
LINE
  5
6E
100
AcDbEntity
  8
sawtooth
  6
ByLayer
 62
  256
370
   -1
100
AcDbLine
 10
0.4179110106971792
 20
0.3089060169099049
 11
0.3803077396228988
 21
0.2933743079886925
  0
LINE
  5
6F
100
AcDbEntity
  8
sawtooth
  6
ByLayer
 62
  256
370
   -1
100
AcDbLine
 10
0.3803077396228988
 20
0.2933743079886925
 11
0.4048765190448366
 21
0.3258029227481183
  0
LINE
  5
70
100
AcDbEntity
  8
sawtooth
  6
ByLayer
 62
  256
370
   -1
100
AcDbLine
 10
0.4048765190448366
 20
0.3258029227481183
 11
0.3679426065374619
 21
0.3087405054399913
  0
LINE
  5
71
100
AcDbEntity
  8
sawtooth
  6
ByLayer
 62
  256
370
   -1
100
AcDbLine
 10
0.3679426065374619
 20
0.3087405054399913
 11
0.3911593139886505
 21
0.3421504511541796
  0
LINE
  5
72
100
AcDbEntity
  8
sawtooth
  6
ByLayer
 62
  256
370
   -1
100
AcDbLine
 10
0.3911593139886505
 20
0.3421504511541796
 11
0.3549570389800016
 21
0.3235860965546455
  0
LINE
  5
73
100
AcDbEntity
  8
sawtooth
  6
ByLayer
 62
  256
370
   -1
100
AcDbLine
 10
0.3549570389800016
 20
0.3235860965546455
 11
0.3767825258395048
 21
0.3579210364969948
  0
LINE
  5
74
100
AcDbEntity
  8
sawtooth
  6
ByLayer
 62
  256
370
   -1
100
AcDbLine
 10
0.3767825258395048
 20
0.3579210364969948
 11
0.3413729335550652
 21
0.3378860483076089
  0
LINE
  5
75
100
AcDbEntity
  8
sawtooth
  6
ByLayer
 62
  256
370
   -1
100
AcDbLine
 10
0.3413729335550652
 20
0.3378860483076089
 11
0.3617703971145918
 21
0.3730880860019934
  0
LINE
  5
76
100
AcDbEntity
  8
sawtooth
  6
ByLayer
 62
  256
370
   -1
100
AcDbLine
 10
0.3617703971145918
 20
0.3730880860019934
 11
0.327213196137448
 21
0.3516162477452354
  0
LINE
  5
77
100
AcDbEntity
  8
sawtooth
  6
ByLayer
 62
  256
370
   -1
100
AcDbLine
 10
0.327213196137448
 20
0.3516162477452354
 11
0.3461482416590434
 21
0.3876260245925611
  0
LINE
  5
78
100
AcDbEntity
  8
sawtooth
  6
ByLayer
 62
  256
370
   -1
100
AcDbLine
 10
0.3461482416590434
 20
0.3876260245925611
 11
0.3125017032477069
 21
0.3647535426451742
  0
LINE
  5
79
100
AcDbEntity
  8
sawtooth
  6
ByLayer
 62
  256
370
   -1
100
AcDbLine
 10
0.3125017032477069
 20
0.3647535426451742
 11
0.3299424019610622
 21
0.4015103380154054
  0
LINE
  5
7A
100
AcDbEntity
  8
sawtooth
  6
ByLayer
 62
  256
370
   -1
100
AcDbLine
 10
0.3299424019610622
 20
0.4015103380154054
 11
0.2972632617909446
 21
0.3772757805562545
  0
LINE
  5
7B
100
AcDbEntity
  8
sawtooth
  6
ByLayer
 62
  256
370
   -1
100
AcDbLine
 10
0.2972632617909446
 20
0.3772757805562545
 11
0.313180204732527
 21
0.4147176141771323
  0
LINE
  5
7C
100
AcDbEntity
  8
sawtooth
  6
ByLayer
 62
  256
370
   -1
100
AcDbLine
 10
0.313180204732527
 20
0.4147176141771323
 11
0.2815235672267566
 21
0.389161846152529
  0
LINE
  5
7D
100
AcDbEntity
  8
sawtooth
  6
ByLayer
 62
  256
370
   -1
100
AcDbLine
 10
0.2815235672267566
 20
0.389161846152529
 11
0.295889914829974
 21
0.427225582622332
  0
LINE
  5
7E
100
AcDbEntity
  8
sawtooth
  6
ByLayer
 62
  256
370
   -1
100
AcDbLine
 10
0.295889914829974
 20
0.427225582622332
 11
0.2653091602408729
 21
0.4003916968384904
  0
LINE
  5
7F
100
AcDbEntity
  8
sawtooth
  6
ByLayer
 62
  256
370
   -1
100
AcDbLine
 10
0.2653091602408729
 20
0.4003916968384904
 11
0.2781006875936554
 21
0.4390131520866047
  0
LINE
  5
80
100
AcDbEntity
  8
sawtooth
  6
ByLayer
 62
  256
370
   -1
100
AcDbLine
 10
0.2781006875936554
 20
0.4390131520866047
 11
0.2486473819915574
 21
0.4109463965454221
  0
LINE
  5
81
100
AcDbEntity
  8
sawtooth
  6
ByLayer
 62
  256
370
   -1
100
AcDbLine
 10
0.2486473819915574
 20
0.4109463965454221
 11
0.2598425196850394
 21
0.4500604460612043
  0
LINE
  5
82
100
AcDbEntity
  8
sawtooth
  6
ByLayer
 62
  256
370
   -1
100
AcDbLine
 10
0.2598425196850394
 20
0.4500604460612043
 11
0.2315663280062306
 21
0.4208081476618931
  0
LINE
  5
83
100
AcDbEntity
  8
sawtooth
  6
ByLayer
 62
  256
370
   -1
100
AcDbLine
 10
0.2315663280062306
 20
0.4208081476618931
 11
0.2411461985056534
 21
0.4603488363093278
  0
LINE
  5
84
100
AcDbEntity
  8
sawtooth
  6
ByLayer
 62
  256
370
   -1
100
AcDbLine
 10
0.2411461985056534
 20
0.4603488363093278
 11
0.2140948008060538
 21
0.4299603210445575
  0
LINE
  5
85
100
AcDbEntity
  8
sawtooth
  6
ByLayer
 62
  256
370
   -1
100
AcDbLine
 10
0.2140948008060538
 20
0.4299603210445575
 11
0.2220432502825602
 21
0.4698609742775374
  0
LINE
  5
86
100
AcDbEntity
  8
sawtooth
  6
ByLayer
 62
  256
370
   -1
100
AcDbLine
 10
0.2220432502825602
 20
0.4698609742775374
 11
0.1962622613383632
 21
0.438387484058652
  0
LINE
  5
87
100
AcDbEntity
  8
sawtooth
  6
ByLayer
 62
  256
370
   -1
100
AcDbLine
 10
0.1962622613383632
 20
0.438387484058652
 11
0.2025658869080066
 21
0.4785808203493459
  0
LINE
  5
88
100
AcDbEntity
  8
sawtooth
  6
ByLayer
 62
  256
370
   -1
100
AcDbLine
 10
0.2025658869080066
 20
0.4785808203493459
 11
0.1780987792988474
 21
0.4460754266009093
  0
LINE
  5
89
100
AcDbEntity
  8
sawtooth
  6
ByLayer
 62
  256
370
   -1
100
AcDbLine
 10
0.1780987792988474
 20
0.4460754266009093
 11
0.1827469516228869
 21
0.4864936708916391
  0
LINE
  5
8A
100
AcDbEntity
  8
sawtooth
  6
ByLayer
 62
  256
370
   -1
100
AcDbLine
 10
0.1827469516228869
 20
0.4864936708916391
 11
0.1596349824272382
 21
0.4530111850610072
  0
LINE
  5
8B
100
AcDbEntity
  8
sawtooth
  6
ByLayer
 62
  256
370
   -1
100
AcDbLine
 10
0.1596349824272382
 20
0.4530111850610072
 11
0.1626198636356079
 21
0.493586183048327
  0
LINE
  5
8C
100
AcDbEntity
  8
sawtooth
  6
ByLayer
 62
  256
370
   -1
100
AcDbLine
 10
0.1626198636356079
 20
0.493586183048327
 11
0.1409020048620128
 21
0.4591830641811478
  0
LINE
  5
8D
100
AcDbEntity
  8
sawtooth
  6
ByLayer
 62
  256
370
   -1
100
AcDbLine
 10
0.1409020048620128
 20
0.4591830641811478
 11
0.1422185617697439
 21
0.4998463972394178
  0
LINE
  5
8E
100
AcDbEntity
  8
sawtooth
  6
ByLayer
 62
  256
370
   -1
100
AcDbLine
 10
0.1422185617697439
 20
0.4998463972394178
 11
0.1219314346411928
 21
0.4645806567769081
  0
LINE
  5
8F
100
AcDbEntity
  8
sawtooth
  6
ByLayer
 62
  256
370
   -1
100
AcDbLine
 10
0.1219314346411928
 20
0.4645806567769081
 11
0.1215774472355024
 21
0.5052637573275753
  0
LINE
  5
90
100
AcDbEntity
  8
sawtooth
  6
ByLayer
 62
  256
370
   -1
100
AcDbLine
 10
0.1215774472355024
 20
0.5052637573275753
 11
0.1027552604377665
 21
0.4691948612861074
  0
LINE
  5
91
100
AcDbEntity
  8
sawtooth
  6
ByLayer
 62
  256
370
   -1
100
AcDbLine
 10
0.1027552604377665
 20
0.4691948612861074
 11
0.100731325621501
 21
0.5098291284181549
  0
LINE
  5
92
100
AcDbEntity
  8
sawtooth
  6
ByLayer
 62
  256
370
   -1
100
AcDbLine
 10
0.100731325621501
 20
0.5098291284181549
 11
0.08340581761954925
 21
0.4730178971160999
  0
LINE
  5
93
100
AcDbEntity
  8
sawtooth
  6
ByLayer
 62
  256
370
   -1
100
AcDbLine
 10
0.08340581761954925
 20
0.4730178971160999
 11
0.07971534820467117
 21
0.5135348122627017
  0
LINE
  5
94
100
AcDbEntity
  8
sawtooth
  6
ByLayer
 62
  256
370
   -1
100
AcDbLine
 10
0.07971534820467117
 20
0.5135348122627017
 11
0.06391573372443839
 21
0.4760433177636144
  0
LINE
  5
95
100
AcDbEntity
  8
sawtooth
  6
ByLayer
 62
  256
370
   -1
100
AcDbLine
 10
0.06391573372443839
 20
0.4760433177636144
 11
0.05856495267725362
 21
0.5163745602399399
  0
LINE
  5
96
100
AcDbEntity
  8
sawtooth
  6
ByLayer
 62
  256
370
   -1
100
AcDbLine
 10
0.05856495267725362
 20
0.5163745602399399
 11
0.04431787344300343
 21
0.4782660216850165
  0
LINE
  5
97
100
AcDbEntity
  8
sawtooth
  6
ByLayer
 62
  256
370
   -1
100
AcDbLine
 10
0.04431787344300343
 20
0.4782660216850165
 11
0.03731580339083174
 21
0.5183435838923609
  0
LINE
  5
98
100
AcDbEntity
  8
sawtooth
  6
ByLayer
 62
  256
370
   -1
100
AcDbLine
 10
0.03731580339083174
 20
0.5183435838923609
 11
0.02464528320118253
 21
0.4796822608986664
  0
LINE
  5
99
100
AcDbEntity
  8
sawtooth
  6
ByLayer
 62
  256
370
   -1
100
AcDbLine
 10
0.02464528320118253
 20
0.4796822608986664
 11
0.01600373121816737
 21
0.5194385630006468
  0
LINE
  5
9A
100
AcDbEntity
  8
sawtooth
  6
ByLayer
 62
  256
370
   -1
100
AcDbLine
 10
0.01600373121816737
 20
0.5194385630006468
 11
0.004931135436533034
 21
0.4802896473048627
  0
LINE
  5
9B
100
AcDbEntity
  8
sawtooth
  6
ByLayer
 62
  256
370
   -1
100
AcDbLine
 10
0.004931135436533034
 20
0.4802896473048627
 11
-0.005335326865756874
 21
0.5196576511823104
  0
LINE
  5
9C
100
AcDbEntity
  8
sawtooth
  6
ByLayer
 62
  256
370
   -1
100
AcDbLine
 10
-0.005335326865756874
 20
0.5196576511823104
 11
-0.01479132733800301
 21
0.480087156712719
  0
LINE
  5
9D
100
AcDbEntity
  8
sawtooth
  6
ByLayer
 62
  256
370
   -1
100
AcDbLine
 10
-0.01479132733800301
 20
0.480087156712719
 11
-0.02666538838160715
 21
0.5190004790051145
  0
LINE
  5
9E
100
AcDbEntity
  8
sawtooth
  6
ByLayer
 62
  256
370
   -1
100
AcDbLine
 10
-0.02666538838160715
 20
0.5190004790051145
 11
-0.03448884858849583
 21
0.4790751305671821
  0
LINE
  5
9F
100
AcDbEntity
  8
sawtooth
  6
ByLayer
 62
  256
370
   -1
100
AcDbLine
 10
-0.03448884858849583
 20
0.4790751305671821
 11
-0.04795048602029862
 21
0.5174681546100179
  0
LINE
  5
A0
100
AcDbEntity
  8
sawtooth
  6
ByLayer
 62
  256
370
   -1
100
AcDbLine
 10
-0.04795048602029862
 20
0.5174681546100179
 11
-0.05412821383806758
 21
0.4772552753732778
  0
LINE
  5
A1
100
AcDbEntity
  8
sawtooth
  6
ByLayer
 62
  256
370
   -1
100
AcDbLine
 10
-0.05412821383806758
 20
0.4772552753732778
 11
-0.06915472829201523
 21
0.5150632618425991
  0
LINE
  5
A2
100
AcDbEntity
  8
sawtooth
  6
ByLayer
 62
  256
370
   -1
100
AcDbLine
 10
-0.06915472829201523
 20
0.5150632618425991
 11
-0.07367630667401409
 21
0.4746306598185577
  0
LINE
  5
A3
100
AcDbEntity
  8
sawtooth
  6
ByLayer
 62
  256
370
   -1
100
AcDbLine
 10
-0.07367630667401409
 20
0.4746306598185577
 11
-0.09024236004738098
 21
0.5117898558961081
  0
LINE
  5
A4
100
AcDbEntity
  8
sawtooth
  6
ByLayer
 62
  256
370
   -1
100
AcDbLine
 10
-0.09024236004738098
 20
0.5117898558961081
 11
-0.09310016458956893
 21
0.4712057095985977
  0
LINE
  5
A5
100
AcDbEntity
  8
sawtooth
  6
ByLayer
 62
  256
370
   -1
100
AcDbLine
 10
-0.09310016458956893
 20
0.4712057095985977
 11
-0.1111778227687308
 21
0.5076534564734932
  0
LINE
  5
A6
100
AcDbEntity
  8
sawtooth
  6
ByLayer
 62
  256
370
   -1
100
AcDbLine
 10
-0.1111778227687308
 20
0.5076534564734932
 11
-0.112367034566146
 21
0.4669861999542742
  0
LINE
  5
A7
100
AcDbEntity
  8
sawtooth
  6
ByLayer
 62
  256
370
   -1
100
AcDbLine
 10
-0.112367034566146
 20
0.4669861999542742
 11
-0.131925814529815
 21
0.5026610384799335
  0
LINE
  5
A8
100
AcDbEntity
  8
sawtooth
  6
ByLayer
 62
  256
370
   -1
100
AcDbLine
 10
-0.131925814529815
 20
0.5026610384799335
 11
-0.1314444283023389
 21
0.4619792459334013
  0
LINE
  5
A9
100
AcDbEntity
  8
sawtooth
  6
ByLayer
 62
  256
370
   -1
100
AcDbLine
 10
-0.1314444283023389
 20
0.4619792459334013
 11
-0.1524513495228333
 21
0.4968210202615698
  0
LINE
  5
AA
100
AcDbEntity
  8
sawtooth
  6
ByLayer
 62
  256
370
   -1
100
AcDbLine
 10
-0.1524513495228333
 20
0.4968210202615698
 11
-0.1503001769965465
 21
0.4561932903931508
  0
LINE
  5
AB
100
AcDbEntity
  8
sawtooth
  6
ByLayer
 62
  256
370
   -1
100
AcDbLine
 10
-0.1503001769965465
 20
0.4561932903931508
 11
-0.1727198170524215
 21
0.4901432494102702
  0
LINE
  5
AC
100
AcDbEntity
  8
sawtooth
  6
ByLayer
 62
  256
370
   -1
100
AcDbLine
 10
-0.1727198170524215
 20
0.4901432494102702
 11
-0.1689024855908499
 21
0.4496380897634847
  0
LINE
  5
AD
100
AcDbEntity
  8
sawtooth
  6
ByLayer
 62
  256
370
   -1
100
AcDbLine
 10
-0.1689024855908499
 20
0.4496380897634847
 11
-0.1926970398971134
 21
0.4826389861583609
  0
LINE
  5
AE
100
AcDbEntity
  8
sawtooth
  6
ByLayer
 62
  256
370
   -1
100
AcDbLine
 10
-0.1926970398971134
 20
0.4826389861583609
 11
-0.1872199863846726
 21
0.4423246975956077
  0
LINE
  5
AF
100
AcDbEntity
  8
sawtooth
  6
ByLayer
 62
  256
370
   -1
100
AcDbLine
 10
-0.1872199863846726
 20
0.4423246975956077
 11
-0.2123493319398682
 21
0.4743208843913284
  0
LINE
  5
B0
100
AcDbEntity
  8
sawtooth
  6
ByLayer
 62
  256
370
   -1
100
AcDbLine
 10
-0.2123493319398682
 20
0.4743208843913284
 11
-0.2052217919278206
 21
0.4342654459231785
  0
LINE
  5
B1
100
AcDbEntity
  8
sawtooth
  6
ByLayer
 62
  256
370
   -1
100
AcDbLine
 10
-0.2052217919278206
 20
0.4342654459231785
 11
-0.2316435549704844
 21
0.4652029703105048
  0
LINE
  5
B2
100
AcDbEntity
  8
sawtooth
  6
ByLayer
 62
  256
370
   -1
100
AcDbLine
 10
-0.2316435549704844
 20
0.4652029703105048
 11
-0.2228775471037099
 21
0.4254739244677121
  0
LINE
  5
B3
100
AcDbEntity
  8
sawtooth
  6
ByLayer
 62
  256
370
   -1
100
AcDbLine
 10
-0.2228775471037099
 20
0.4254739244677121
 11
-0.2505471745641183
 21
0.4553006187817204
  0
LINE
  5
B4
100
AcDbEntity
  8
sawtooth
  6
ByLayer
 62
  256
370
   -1
100
AcDbLine
 10
-0.2505471745641183
 20
0.4553006187817204
 11
-0.2401574803149605
 21
0.4159649577232343
  0
LINE
  5
B5
100
AcDbEntity
  8
sawtooth
  6
ByLayer
 62
  256
370
   -1
100
AcDbLine
 10
-0.2401574803149605
 20
0.4159649577232343
 11
-0.2690283149416849
 21
0.4446305274098011
  0
LINE
  5
B6
100
AcDbEntity
  8
sawtooth
  6
ByLayer
 62
  256
370
   -1
100
AcDbLine
 10
-0.2690283149416849
 20
0.4446305274098011
 11
-0.257032453685045
 21
0.4057545799588317
  0
LINE
  5
B7
100
AcDbEntity
  8
sawtooth
  6
ByLayer
 62
  256
370
   -1
100
AcDbLine
 10
-0.257032453685045
 20
0.4057545799588317
 11
-0.2870558127196328
 21
0.4332106883826291
  0
LINE
  5
B8
100
AcDbEntity
  8
sawtooth
  6
ByLayer
 62
  256
370
   -1
100
AcDbLine
 10
-0.2870558127196328
 20
0.4332106883826291
 11
-0.2734740121913395
 21
0.3948600081812463
  0
LINE
  5
B9
100
AcDbEntity
  8
sawtooth
  6
ByLayer
 62
  256
370
   -1
100
AcDbLine
 10
-0.2734740121913395
 20
0.3948600081812463
 11
-0.3045992694584578
 21
0.4210603581322446
  0
LINE
  5
BA
100
AcDbEntity
  8
sawtooth
  6
ByLayer
 62
  256
370
   -1
100
AcDbLine
 10
-0.3045992694584578
 20
0.4210603581322446
 11
-0.2894544316467294
 21
0.3832996131031072
  0
LINE
  5
BB
100
AcDbEntity
  8
sawtooth
  6
ByLayer
 62
  256
370
   -1
100
AcDbLine
 10
-0.2894544316467294
 20
0.3832996131031072
 11
-0.3216291029213498
 21
0.4082000248641444
  0
LINE
  5
BC
100
AcDbEntity
  8
sawtooth
  6
ByLayer
 62
  256
370
   -1
100
AcDbLine
 10
-0.3216291029213498
 20
0.4082000248641444
 11
-0.3049467654488605
 21
0.3710928881657535
  0
LINE
  5
BD
100
AcDbEntity
  8
sawtooth
  6
ByLayer
 62
  256
370
   -1
100
AcDbLine
 10
-0.3049467654488605
 20
0.3710928881657535
 11
-0.3381165969565351
 21
0.3946513740095329
  0
LINE
  5
BE
100
AcDbEntity
  8
sawtooth
  6
ByLayer
 62
  256
370
   -1
100
AcDbLine
 10
-0.3381165969565351
 20
0.3946513740095329
 11
-0.3199248900182067
 21
0.3582604166688823
  0
LINE
  5
BF
100
AcDbEntity
  8
sawtooth
  6
ByLayer
 62
  256
370
   -1
100
AcDbLine
 10
-0.3199248900182067
 20
0.3582604166688823
 11
-0.3540339499192059
 21
0.3804372516587793
  0
LINE
  5
C0
100
AcDbEntity
  8
sawtooth
  6
ByLayer
 62
  256
370
   -1
100
AcDbLine
 10
-0.3540339499192059
 20
0.3804372516587793
 11
-0.3343635488483348
 21
0.3448238370624485
  0
LINE
  5
C1
100
AcDbEntity
  8
sawtooth
  6
ByLayer
 62
  256
370
   -1
100
AcDbLine
 10
-0.3343635488483348
 20
0.3448238370624485
 11
-0.3693543215513819
 21
0.3655816260377409
  0
LINE
  5
C2
100
AcDbEntity
  8
sawtooth
  6
ByLayer
 62
  256
370
   -1
100
AcDbLine
 10
-0.3693543215513819
 20
0.3655816260377409
 11
-0.3482383950940877
 21
0.3308058064593439
  0
LINE
  5
C3
100
AcDbEntity
  8
sawtooth
  6
ByLayer
 62
  256
370
   -1
100
AcDbLine
 10
-0.3482383950940877
 20
0.3308058064593439
 11
-0.3840518782406574
 21
0.3501095470919117
  0
LINE
  5
C4
100
AcDbEntity
  8
sawtooth
  6
ByLayer
 62
  256
370
   -1
100
AcDbLine
 10
-0.3840518782406574
 20
0.3501095470919117
 11
-0.3615260326258738
 21
0.3162299624303783
  0
LINE
  5
C5
100
AcDbEntity
  8
sawtooth
  6
ByLayer
 62
  256
370
   -1
100
AcDbLine
 10
-0.3615260326258738
 20
0.3162299624303783
 11
-0.398101836581516
 21
0.334047104246548
  0
LINE
  5
C6
100
AcDbEntity
  8
sawtooth
  6
ByLayer
 62
  256
370
   -1
100
AcDbLine
 10
-0.398101836581516
 20
0.334047104246548
 11
-0.3742040554808337
 21
0.3011208831459883
  0
LINE
  5
C7
100
AcDbEntity
  8
sawtooth
  6
ByLayer
 62
  256
370
   -1
100
AcDbLine
 10
-0.3742040554808337
 20
0.3011208831459883
 11
-0.4114805051657592
 21
0.3174213824139953
  0
LINE
  5
C8
100
AcDbEntity
  8
sawtooth
  6
ByLayer
 62
  256
370
   -1
100
AcDbLine
 10
-0.4114805051657592
 20
0.3174213824139953
 11
-0.3862510856443624
 21
0.285504045931882
  0
LINE
  5
C9
100
AcDbEntity
  8
sawtooth
  6
ByLayer
 62
  256
370
   -1
100
AcDbLine
 10
-0.3862510856443624
 20
0.285504045931882
 11
-0.4241653245315797
 21
0.3002604163223982
  0
LINE
  5
CA
100
AcDbEntity
  8
sawtooth
  6
ByLayer
 62
  256
370
   -1
100
AcDbLine
 10
-0.4241653245315797
 20
0.3002604163223982
 11
-0.3976468090982785
 21
0.2694057843085037
  0
LINE
  5
CB
100
AcDbEntity
  8
sawtooth
  6
ByLayer
 62
  256
370
   -1
100
AcDbLine
 10
-0.3976468090982785
 20
0.2694057843085037
 11
-0.4361349052039177
 21
0.2825931432428075
  0
LINE
  5
CC
100
AcDbEntity
  8
sawtooth
  6
ByLayer
 62
  256
370
   -1
100
AcDbLine
 10
-0.4361349052039177
 20
0.2825931432428075
 11
-0.408372010074854
 21
0.2528532435867615
  0
LINE
  5
CD
100
AcDbEntity
  8
sawtooth
  6
ByLayer
 62
  256
370
   -1
100
AcDbLine
 10
-0.408372010074854
 20
0.2528532435867615
 11
-0.4473690637619548
 21
0.2644493541943944
  0
LINE
  5
CE
100
AcDbEntity
  8
sawtooth
  6
ByLayer
 62
  256
370
   -1
100
AcDbLine
 10
-0.4473690637619548
 20
0.2644493541943944
 11
-0.4184086034589457
 21
0.2358743350948922
  0
LINE
  5
CF
100
AcDbEntity
  8
sawtooth
  6
ByLayer
 62
  256
370
   -1
100
AcDbLine
 10
-0.4184086034589457
 20
0.2358743350948922
 11
-0.4578488568729272
 21
0.2458596437100527
  0
LINE
  5
D0
100
AcDbEntity
  8
sawtooth
  6
ByLayer
 62
  256
370
   -1
100
AcDbLine
 10
-0.4578488568729272
 20
0.2458596437100527
 11
-0.4277396652835912
 21
0.2184976891136475
  0
LINE
  5
D1
100
AcDbEntity
  8
sawtooth
  6
ByLayer
 62
  256
370
   -1
100
AcDbLine
 10
-0.4277396652835912
 20
0.2184976891136475
 11
-0.4675566132348707
 21
0.226855358247095
  0
LINE
  5
D2
100
AcDbEntity
  8
sawtooth
  6
ByLayer
 62
  256
370
   -1
100
AcDbLine
 10
-0.4675566132348707
 20
0.226855358247095
 11
-0.4363494612676452
 21
0.2007526065991638
  0
LINE
  5
D3
100
AcDbEntity
  8
sawtooth
  6
ByLayer
 62
  256
370
   -1
100
AcDbLine
 10
-0.4363494612676452
 20
0.2007526065991638
 11
-0.4764759633744325
 21
0.2074685433300352
  0
LINE
  5
D4
100
AcDbEntity
  8
sawtooth
  6
ByLayer
 62
  256
370
   -1
100
AcDbLine
 10
-0.4764759633744325
 20
0.2074685433300352
 11
-0.4442234733473371
 21
0.1826690097749219
  0
LINE
  5
D5
100
AcDbEntity
  8
sawtooth
  6
ByLayer
 62
  256
370
   -1
100
AcDbLine
 10
-0.4442234733473371
 20
0.1826690097749219
 11
-0.4845918672495076
 21
0.1877318895145836
  0
LINE
  5
D6
100
AcDbEntity
  8
sawtooth
  6
ByLayer
 62
  256
370
   -1
100
AcDbLine
 10
-0.4845918672495076
 20
0.1877318895145836
 11
-0.451348424157011
 21
0.1642773916761087
  0
LINE
  5
D7
100
AcDbEntity
  8
sawtooth
  6
ByLayer
 62
  256
370
   -1
100
AcDbLine
 10
-0.451348424157011
 20
0.1642773916761087
 11
-0.4918906396101514
 21
0.1676786772639755
  0
LINE
  5
D8
100
AcDbEntity
  8
sawtooth
  6
ByLayer
 62
  256
370
   -1
100
AcDbLine
 10
-0.4918906396101514
 20
0.1676786772639755
 11
-0.457712299417768
 21
0.1456087647314619
  0
LINE
  5
D9
100
AcDbEntity
  8
sawtooth
  6
ByLayer
 62
  256
370
   -1
100
AcDbLine
 10
-0.457712299417768
 20
0.1456087647314619
 11
-0.4983599730750072
 21
0.1473427208305806
  0
LINE
  5
DA
100
AcDbEntity
  8
sawtooth
  6
ByLayer
 62
  256
370
   -1
100
AcDbLine
 10
-0.4983599730750072
 20
0.1473427208305806
 11
-0.463304368196258
 21
0.1266946084692993
  0
LINE
  5
DB
100
AcDbEntity
  8
sawtooth
  6
ByLayer
 62
  256
370
   -1
100
AcDbLine
 10
-0.463304368196258
 20
0.1266946084692993
 11
-0.5039889588843356
 21
0.1267583112374245
  0
LINE
  5
DC
100
AcDbEntity
  8
sawtooth
  6
ByLayer
 62
  256
370
   -1
100
AcDbLine
 10
-0.5039889588843356
 20
0.1267583112374245
 11
-0.4681152009994607
 21
0.1075668164359127
  0
LINE
  5
DD
100
AcDbEntity
  8
sawtooth
  6
ByLayer
 62
  256
370
   -1
100
AcDbLine
 10
-0.4681152009994607
 20
0.1075668164359127
 11
-0.5087681052946511
 21
0.1059601584557661
  0
LINE
  5
DE
100
AcDbEntity
  8
sawtooth
  6
ByLayer
 62
  256
370
   -1
100
AcDbLine
 10
-0.5087681052946511
 20
0.1059601584557661
 11
-0.4721366856749449
 21
0.08825764241583323
  0
LINE
  5
DF
100
AcDbEntity
  8
sawtooth
  6
ByLayer
 62
  256
370
   -1
100
AcDbLine
 10
-0.4721366856749449
 20
0.08825764241583323
 11
-0.512689353583949
 21
0.0849833328762339
  0
LINE
  5
E0
100
AcDbEntity
  8
sawtooth
  6
ByLayer
 62
  256
370
   -1
100
AcDbLine
 10
-0.512689353583949
 20
0.0849833328762339
 11
-0.4753620410897919
 21
0.06879964604465501
  0
LINE
  5
E1
100
AcDbEntity
  8
sawtooth
  6
ByLayer
 62
  256
370
   -1
100
AcDbLine
 10
-0.4753620410897919
 20
0.06879964604465501
 11
-0.5157460916405335
 21
0.06386320617221375
  0
LINE
  5
E2
100
AcDbEntity
  8
sawtooth
  6
ByLayer
 62
  256
370
   -1
100
AcDbLine
 10
-0.5157460916405335
 20
0.06386320617221375
 11
-0.4777858285651198
 21
0.04922563790612319
  0
LINE
  5
E3
100
AcDbEntity
  8
sawtooth
  6
ByLayer
 62
  256
370
   -1
100
AcDbLine
 10
-0.4777858285651198
 20
0.04922563790612319
 11
-0.5179331651125341
 21
0.04263539165520543
  0
LINE
  5
E4
100
AcDbEntity
  8
sawtooth
  6
ByLayer
 62
  256
370
   -1
100
AcDbLine
 10
-0.5179331651125341
 20
0.04263539165520543
 11
-0.4794039610469267
 21
0.02956862420606722
  0
LINE
  5
E5
100
AcDbEntity
  8
sawtooth
  6
ByLayer
 62
  256
370
   -1
100
AcDbLine
 10
-0.4794039610469267
 20
0.02956862420606722
 11
-0.5192468860993087
 21
0.02133568422272306
  0
LINE
  5
E6
100
AcDbEntity
  8
sawtooth
  6
ByLayer
 62
  256
370
   -1
100
AcDbLine
 10
-0.5192468860993087
 20
0.02133568422272306
 11
-0.480213709997788
 21
0.009861751116471149
  0
LINE
  5
E7
100
AcDbEntity
  8
sawtooth
  6
ByLayer
 62
  256
370
   -1
100
AcDbLine
 10
-0.480213709997788
 20
0.009861751116471149
 11
-0.5196850393700787
 21
6.364306200293331e-17
  0
LINE
  5
E8
100
AcDbEntity
  8
sawtooth
  6
ByLayer
 62
  256
370
   -1
100
AcDbLine
 10
-0.5196850393700787
 20
6.364306200293331e-17
 11
-0.480213709997788
 21
-0.009861751116470818
  0
LINE
  5
E9
100
AcDbEntity
  8
sawtooth
  6
ByLayer
 62
  256
370
   -1
100
AcDbLine
 10
-0.480213709997788
 20
-0.009861751116470818
 11
-0.5192468860993088
 21
-0.0213356842227227
  0
LINE
  5
EA
100
AcDbEntity
  8
sawtooth
  6
ByLayer
 62
  256
370
   -1
100
AcDbLine
 10
-0.5192468860993088
 20
-0.0213356842227227
 11
-0.4794039610469267
 21
-0.02956862420606689
  0
LINE
  5
EB
100
AcDbEntity
  8
sawtooth
  6
ByLayer
 62
  256
370
   -1
100
AcDbLine
 10
-0.4794039610469267
 20
-0.02956862420606689
 11
-0.5179331651125342
 21
-0.04263539165520508
  0
LINE
  5
EC
100
AcDbEntity
  8
sawtooth
  6
ByLayer
 62
  256
370
   -1
100
AcDbLine
 10
-0.5179331651125342
 20
-0.04263539165520508
 11
-0.4777858285651198
 21
-0.04922563790612286
  0
LINE
  5
ED
100
AcDbEntity
  8
sawtooth
  6
ByLayer
 62
  256
370
   -1
100
AcDbLine
 10
-0.4777858285651198
 20
-0.04922563790612286
 11
-0.5157460916405335
 21
-0.06386320617221339
  0
LINE
  5
EE
100
AcDbEntity
  8
sawtooth
  6
ByLayer
 62
  256
370
   -1
100
AcDbLine
 10
-0.5157460916405335
 20
-0.06386320617221339
 11
-0.4753620410897919
 21
-0.06879964604465469
  0
LINE
  5
EF
100
AcDbEntity
  8
sawtooth
  6
ByLayer
 62
  256
370
   -1
100
AcDbLine
 10
-0.4753620410897919
 20
-0.06879964604465469
 11
-0.5126893535839491
 21
-0.08498333287623355
  0
LINE
  5
F0
100
AcDbEntity
  8
sawtooth
  6
ByLayer
 62
  256
370
   -1
100
AcDbLine
 10
-0.5126893535839491
 20
-0.08498333287623355
 11
-0.4721366856749449
 21
-0.08825764241583289
  0
LINE
  5
F1
100
AcDbEntity
  8
sawtooth
  6
ByLayer
 62
  256
370
   -1
100
AcDbLine
 10
-0.4721366856749449
 20
-0.08825764241583289
 11
-0.5087681052946512
 21
-0.1059601584557657
  0
LINE
  5
F2
100
AcDbEntity
  8
sawtooth
  6
ByLayer
 62
  256
370
   -1
100
AcDbLine
 10
-0.5087681052946512
 20
-0.1059601584557657
 11
-0.4681152009994607
 21
-0.1075668164359124
  0
LINE
  5
F3
100
AcDbEntity
  8
sawtooth
  6
ByLayer
 62
  256
370
   -1
100
AcDbLine
 10
-0.4681152009994607
 20
-0.1075668164359124
 11
-0.5039889588843357
 21
-0.1267583112374241
  0
LINE
  5
F4
100
AcDbEntity
  8
sawtooth
  6
ByLayer
 62
  256
370
   -1
100
AcDbLine
 10
-0.5039889588843357
 20
-0.1267583112374241
 11
-0.463304368196258
 21
-0.1266946084692992
  0
LINE
  5
F5
100
AcDbEntity
  8
sawtooth
  6
ByLayer
 62
  256
370
   -1
100
AcDbLine
 10
-0.463304368196258
 20
-0.1266946084692992
 11
-0.4983599730750073
 21
-0.1473427208305802
  0
LINE
  5
F6
100
AcDbEntity
  8
sawtooth
  6
ByLayer
 62
  256
370
   -1
100
AcDbLine
 10
-0.4983599730750073
 20
-0.1473427208305802
 11
-0.4577122994177681
 21
-0.1456087647314616
  0
LINE
  5
F7
100
AcDbEntity
  8
sawtooth
  6
ByLayer
 62
  256
370
   -1
100
AcDbLine
 10
-0.4577122994177681
 20
-0.1456087647314616
 11
-0.4918906396101515
 21
-0.1676786772639751
  0
LINE
  5
F8
100
AcDbEntity
  8
sawtooth
  6
ByLayer
 62
  256
370
   -1
100
AcDbLine
 10
-0.4918906396101515
 20
-0.1676786772639751
 11
-0.4513484241570112
 21
-0.1642773916761084
  0
LINE
  5
F9
100
AcDbEntity
  8
sawtooth
  6
ByLayer
 62
  256
370
   -1
100
AcDbLine
 10
-0.4513484241570112
 20
-0.1642773916761084
 11
-0.4845918672495078
 21
-0.1877318895145833
  0
LINE
  5
FA
100
AcDbEntity
  8
sawtooth
  6
ByLayer
 62
  256
370
   -1
100
AcDbLine
 10
-0.4845918672495078
 20
-0.1877318895145833
 11
-0.4442234733473372
 21
-0.1826690097749215
  0
LINE
  5
FB
100
AcDbEntity
  8
sawtooth
  6
ByLayer
 62
  256
370
   -1
100
AcDbLine
 10
-0.4442234733473372
 20
-0.1826690097749215
 11
-0.4764759633744327
 21
-0.2074685433300348
  0
LINE
  5
FC
100
AcDbEntity
  8
sawtooth
  6
ByLayer
 62
  256
370
   -1
100
AcDbLine
 10
-0.4764759633744327
 20
-0.2074685433300348
 11
-0.4363494612676453
 21
-0.2007526065991635
  0
LINE
  5
FD
100
AcDbEntity
  8
sawtooth
  6
ByLayer
 62
  256
370
   -1
100
AcDbLine
 10
-0.4363494612676453
 20
-0.2007526065991635
 11
-0.4675566132348708
 21
-0.2268553582470947
  0
LINE
  5
FE
100
AcDbEntity
  8
sawtooth
  6
ByLayer
 62
  256
370
   -1
100
AcDbLine
 10
-0.4675566132348708
 20
-0.2268553582470947
 11
-0.4277396652835914
 21
-0.2184976891136472
  0
LINE
  5
FF
100
AcDbEntity
  8
sawtooth
  6
ByLayer
 62
  256
370
   -1
100
AcDbLine
 10
-0.4277396652835914
 20
-0.2184976891136472
 11
-0.4578488568729274
 21
-0.2458596437100524
  0
LINE
  5
100
100
AcDbEntity
  8
sawtooth
  6
ByLayer
 62
  256
370
   -1
100
AcDbLine
 10
-0.4578488568729274
 20
-0.2458596437100524
 11
-0.4184086034589459
 21
-0.2358743350948919
  0
LINE
  5
101
100
AcDbEntity
  8
sawtooth
  6
ByLayer
 62
  256
370
   -1
100
AcDbLine
 10
-0.4184086034589459
 20
-0.2358743350948919
 11
-0.4473690637619548
 21
-0.2644493541943943
  0
LINE
  5
102
100
AcDbEntity
  8
sawtooth
  6
ByLayer
 62
  256
370
   -1
100
AcDbLine
 10
-0.4473690637619548
 20
-0.2644493541943943
 11
-0.4083720100748541
 21
-0.2528532435867613
  0
LINE
  5
103
100
AcDbEntity
  8
sawtooth
  6
ByLayer
 62
  256
370
   -1
100
AcDbLine
 10
-0.4083720100748541
 20
-0.2528532435867613
 11
-0.4361349052039179
 21
-0.2825931432428073
  0
LINE
  5
104
100
AcDbEntity
  8
sawtooth
  6
ByLayer
 62
  256
370
   -1
100
AcDbLine
 10
-0.4361349052039179
 20
-0.2825931432428073
 11
-0.3976468090982787
 21
-0.2694057843085034
  0
LINE
  5
105
100
AcDbEntity
  8
sawtooth
  6
ByLayer
 62
  256
370
   -1
100
AcDbLine
 10
-0.3976468090982787
 20
-0.2694057843085034
 11
-0.42416532453158
 21
-0.300260416322398
  0
LINE
  5
106
100
AcDbEntity
  8
sawtooth
  6
ByLayer
 62
  256
370
   -1
100
AcDbLine
 10
-0.42416532453158
 20
-0.300260416322398
 11
-0.3862510856443626
 21
-0.2855040459318817
  0
LINE
  5
107
100
AcDbEntity
  8
sawtooth
  6
ByLayer
 62
  256
370
   -1
100
AcDbLine
 10
-0.3862510856443626
 20
-0.2855040459318817
 11
-0.4114805051657595
 21
-0.317421382413995
  0
LINE
  5
108
100
AcDbEntity
  8
sawtooth
  6
ByLayer
 62
  256
370
   -1
100
AcDbLine
 10
-0.4114805051657595
 20
-0.317421382413995
 11
-0.3742040554808339
 21
-0.301120883145988
  0
LINE
  5
109
100
AcDbEntity
  8
sawtooth
  6
ByLayer
 62
  256
370
   -1
100
AcDbLine
 10
-0.3742040554808339
 20
-0.301120883145988
 11
-0.3981018365815163
 21
-0.3340471042465478
  0
LINE
  5
10A
100
AcDbEntity
  8
sawtooth
  6
ByLayer
 62
  256
370
   -1
100
AcDbLine
 10
-0.3981018365815163
 20
-0.3340471042465478
 11
-0.361526032625874
 21
-0.316229962430378
  0
LINE
  5
10B
100
AcDbEntity
  8
sawtooth
  6
ByLayer
 62
  256
370
   -1
100
AcDbLine
 10
-0.361526032625874
 20
-0.316229962430378
 11
-0.3840518782406576
 21
-0.3501095470919114
  0
LINE
  5
10C
100
AcDbEntity
  8
sawtooth
  6
ByLayer
 62
  256
370
   -1
100
AcDbLine
 10
-0.3840518782406576
 20
-0.3501095470919114
 11
-0.3482383950940879
 21
-0.3308058064593437
  0
LINE
  5
10D
100
AcDbEntity
  8
sawtooth
  6
ByLayer
 62
  256
370
   -1
100
AcDbLine
 10
-0.3482383950940879
 20
-0.3308058064593437
 11
-0.3693543215513821
 21
-0.3655816260377406
  0
LINE
  5
10E
100
AcDbEntity
  8
sawtooth
  6
ByLayer
 62
  256
370
   -1
100
AcDbLine
 10
-0.3693543215513821
 20
-0.3655816260377406
 11
-0.334363548848335
 21
-0.3448238370624483
  0
LINE
  5
10F
100
AcDbEntity
  8
sawtooth
  6
ByLayer
 62
  256
370
   -1
100
AcDbLine
 10
-0.334363548848335
 20
-0.3448238370624483
 11
-0.3540339499192062
 21
-0.3804372516587791
  0
LINE
  5
110
100
AcDbEntity
  8
sawtooth
  6
ByLayer
 62
  256
370
   -1
100
AcDbLine
 10
-0.3540339499192062
 20
-0.3804372516587791
 11
-0.319924890018207
 21
-0.358260416668882
  0
LINE
  5
111
100
AcDbEntity
  8
sawtooth
  6
ByLayer
 62
  256
370
   -1
100
AcDbLine
 10
-0.319924890018207
 20
-0.358260416668882
 11
-0.3381165969565356
 21
-0.3946513740095325
  0
LINE
  5
112
100
AcDbEntity
  8
sawtooth
  6
ByLayer
 62
  256
370
   -1
100
AcDbLine
 10
-0.3381165969565356
 20
-0.3946513740095325
 11
-0.3049467654488608
 21
-0.3710928881657533
  0
LINE
  5
113
100
AcDbEntity
  8
sawtooth
  6
ByLayer
 62
  256
370
   -1
100
AcDbLine
 10
-0.3049467654488608
 20
-0.3710928881657533
 11
-0.3216291029213501
 21
-0.4082000248641441
  0
LINE
  5
114
100
AcDbEntity
  8
sawtooth
  6
ByLayer
 62
  256
370
   -1
100
AcDbLine
 10
-0.3216291029213501
 20
-0.4082000248641441
 11
-0.2894544316467295
 21
-0.3832996131031071
  0
LINE
  5
115
100
AcDbEntity
  8
sawtooth
  6
ByLayer
 62
  256
370
   -1
100
AcDbLine
 10
-0.2894544316467295
 20
-0.3832996131031071
 11
-0.3045992694584583
 21
-0.4210603581322442
  0
LINE
  5
116
100
AcDbEntity
  8
sawtooth
  6
ByLayer
 62
  256
370
   -1
100
AcDbLine
 10
-0.3045992694584583
 20
-0.4210603581322442
 11
-0.2734740121913398
 21
-0.3948600081812461
  0
LINE
  5
117
100
AcDbEntity
  8
sawtooth
  6
ByLayer
 62
  256
370
   -1
100
AcDbLine
 10
-0.2734740121913398
 20
-0.3948600081812461
 11
-0.287055812719633
 21
-0.4332106883826289
  0
LINE
  5
118
100
AcDbEntity
  8
sawtooth
  6
ByLayer
 62
  256
370
   -1
100
AcDbLine
 10
-0.287055812719633
 20
-0.4332106883826289
 11
-0.2570324536850451
 21
-0.4057545799588317
  0
LINE
  5
119
100
AcDbEntity
  8
sawtooth
  6
ByLayer
 62
  256
370
   -1
100
AcDbLine
 10
-0.2570324536850451
 20
-0.4057545799588317
 11
-0.2690283149416853
 21
-0.4446305274098008
  0
LINE
  5
11A
100
AcDbEntity
  8
sawtooth
  6
ByLayer
 62
  256
370
   -1
100
AcDbLine
 10
-0.2690283149416853
 20
-0.4446305274098008
 11
-0.2401574803149608
 21
-0.4159649577232342
  0
LINE
  5
11B
100
AcDbEntity
  8
sawtooth
  6
ByLayer
 62
  256
370
   -1
100
AcDbLine
 10
-0.2401574803149608
 20
-0.4159649577232342
 11
-0.2505471745641184
 21
-0.4553006187817203
  0
LINE
  5
11C
100
AcDbEntity
  8
sawtooth
  6
ByLayer
 62
  256
370
   -1
100
AcDbLine
 10
-0.2505471745641184
 20
-0.4553006187817203
 11
-0.2228775471037104
 21
-0.4254739244677119
  0
LINE
  5
11D
100
AcDbEntity
  8
sawtooth
  6
ByLayer
 62
  256
370
   -1
100
AcDbLine
 10
-0.2228775471037104
 20
-0.4254739244677119
 11
-0.2316435549704847
 21
-0.4652029703105046
  0
LINE
  5
11E
100
AcDbEntity
  8
sawtooth
  6
ByLayer
 62
  256
370
   -1
100
AcDbLine
 10
-0.2316435549704847
 20
-0.4652029703105046
 11
-0.2052217919278209
 21
-0.4342654459231783
  0
LINE
  5
11F
100
AcDbEntity
  8
sawtooth
  6
ByLayer
 62
  256
370
   -1
100
AcDbLine
 10
-0.2052217919278209
 20
-0.4342654459231783
 11
-0.2123493319398684
 21
-0.4743208843913283
  0
LINE
  5
120
100
AcDbEntity
  8
sawtooth
  6
ByLayer
 62
  256
370
   -1
100
AcDbLine
 10
-0.2123493319398684
 20
-0.4743208843913283
 11
-0.1872199863846731
 21
-0.4423246975956075
  0
LINE
  5
121
100
AcDbEntity
  8
sawtooth
  6
ByLayer
 62
  256
370
   -1
100
AcDbLine
 10
-0.1872199863846731
 20
-0.4423246975956075
 11
-0.1926970398971138
 21
-0.4826389861583608
  0
LINE
  5
122
100
AcDbEntity
  8
sawtooth
  6
ByLayer
 62
  256
370
   -1
100
AcDbLine
 10
-0.1926970398971138
 20
-0.4826389861583608
 11
-0.1689024855908501
 21
-0.4496380897634846
  0
LINE
  5
123
100
AcDbEntity
  8
sawtooth
  6
ByLayer
 62
  256
370
   -1
100
AcDbLine
 10
-0.1689024855908501
 20
-0.4496380897634846
 11
-0.1727198170524216
 21
-0.4901432494102702
  0
LINE
  5
124
100
AcDbEntity
  8
sawtooth
  6
ByLayer
 62
  256
370
   -1
100
AcDbLine
 10
-0.1727198170524216
 20
-0.4901432494102702
 11
-0.1503001769965469
 21
-0.4561932903931507
  0
LINE
  5
125
100
AcDbEntity
  8
sawtooth
  6
ByLayer
 62
  256
370
   -1
100
AcDbLine
 10
-0.1503001769965469
 20
-0.4561932903931507
 11
-0.1524513495228336
 21
-0.4968210202615697
  0
LINE
  5
126
100
AcDbEntity
  8
sawtooth
  6
ByLayer
 62
  256
370
   -1
100
AcDbLine
 10
-0.1524513495228336
 20
-0.4968210202615697
 11
-0.1314444283023391
 21
-0.4619792459334012
  0
LINE
  5
127
100
AcDbEntity
  8
sawtooth
  6
ByLayer
 62
  256
370
   -1
100
AcDbLine
 10
-0.1314444283023391
 20
-0.4619792459334012
 11
-0.1319258145298151
 21
-0.5026610384799334
  0
LINE
  5
128
100
AcDbEntity
  8
sawtooth
  6
ByLayer
 62
  256
370
   -1
100
AcDbLine
 10
-0.1319258145298151
 20
-0.5026610384799334
 11
-0.1123670345661465
 21
-0.4669861999542741
  0
LINE
  5
129
100
AcDbEntity
  8
sawtooth
  6
ByLayer
 62
  256
370
   -1
100
AcDbLine
 10
-0.1123670345661465
 20
-0.4669861999542741
 11
-0.1111778227687312
 21
-0.5076534564734931
  0
LINE
  5
12A
100
AcDbEntity
  8
sawtooth
  6
ByLayer
 62
  256
370
   -1
100
AcDbLine
 10
-0.1111778227687312
 20
-0.5076534564734931
 11
-0.09310016458956917
 21
-0.4712057095985976
  0
LINE
  5
12B
100
AcDbEntity
  8
sawtooth
  6
ByLayer
 62
  256
370
   -1
100
AcDbLine
 10
-0.09310016458956917
 20
-0.4712057095985976
 11
-0.09024236004738156
 21
-0.511789855896108
  0
LINE
  5
12C
100
AcDbEntity
  8
sawtooth
  6
ByLayer
 62
  256
370
   -1
100
AcDbLine
 10
-0.09024236004738156
 20
-0.511789855896108
 11
-0.07367630667401454
 21
-0.4746306598185576
  0
LINE
  5
12D
100
AcDbEntity
  8
sawtooth
  6
ByLayer
 62
  256
370
   -1
100
AcDbLine
 10
-0.07367630667401454
 20
-0.4746306598185576
 11
-0.06915472829201548
 21
-0.5150632618425991
  0
LINE
  5
12E
100
AcDbEntity
  8
sawtooth
  6
ByLayer
 62
  256
370
   -1
100
AcDbLine
 10
-0.06915472829201548
 20
-0.5150632618425991
 11
-0.05412821383806769
 21
-0.4772552753732778
  0
LINE
  5
12F
100
AcDbEntity
  8
sawtooth
  6
ByLayer
 62
  256
370
   -1
100
AcDbLine
 10
-0.05412821383806769
 20
-0.4772552753732778
 11
-0.04795048602029909
 21
-0.5174681546100178
  0
LINE
  5
130
100
AcDbEntity
  8
sawtooth
  6
ByLayer
 62
  256
370
   -1
100
AcDbLine
 10
-0.04795048602029909
 20
-0.5174681546100178
 11
-0.03448884858849616
 21
-0.4790751305671821
  0
LINE
  5
131
100
AcDbEntity
  8
sawtooth
  6
ByLayer
 62
  256
370
   -1
100
AcDbLine
 10
-0.03448884858849616
 20
-0.4790751305671821
 11
-0.02666538838160739
 21
-0.5190004790051145
  0
LINE
  5
132
100
AcDbEntity
  8
sawtooth
  6
ByLayer
 62
  256
370
   -1
100
AcDbLine
 10
-0.02666538838160739
 20
-0.5190004790051145
 11
-0.01479132733800313
 21
-0.480087156712719
  0
LINE
  5
133
100
AcDbEntity
  8
sawtooth
  6
ByLayer
 62
  256
370
   -1
100
AcDbLine
 10
-0.01479132733800313
 20
-0.480087156712719
 11
-0.005335326865757346
 21
-0.5196576511823104
  0
LINE
  5
134
100
AcDbEntity
  8
sawtooth
  6
ByLayer
 62
  256
370
   -1
100
AcDbLine
 10
-0.005335326865757346
 20
-0.5196576511823104
 11
0.004931135436532702
 21
-0.4802896473048627
  0
LINE
  5
135
100
AcDbEntity
  8
sawtooth
  6
ByLayer
 62
  256
370
   -1
100
AcDbLine
 10
0.004931135436532702
 20
-0.4802896473048627
 11
0.01600373121816713
 21
-0.5194385630006468
  0
LINE
  5
136
100
AcDbEntity
  8
sawtooth
  6
ByLayer
 62
  256
370
   -1
100
AcDbLine
 10
0.01600373121816713
 20
-0.5194385630006468
 11
0.02464528320118199
 21
-0.4796822608986665
  0
LINE
  5
137
100
AcDbEntity
  8
sawtooth
  6
ByLayer
 62
  256
370
   -1
100
AcDbLine
 10
0.02464528320118199
 20
-0.4796822608986665
 11
0.03731580339083126
 21
-0.518343583892361
  0
LINE
  5
138
100
AcDbEntity
  8
sawtooth
  6
ByLayer
 62
  256
370
   -1
100
AcDbLine
 10
0.03731580339083126
 20
-0.518343583892361
 11
0.0443178734430031
 21
-0.4782660216850166
  0
LINE
  5
139
100
AcDbEntity
  8
sawtooth
  6
ByLayer
 62
  256
370
   -1
100
AcDbLine
 10
0.0443178734430031
 20
-0.4782660216850166
 11
0.05856495267725338
 21
-0.5163745602399399
  0
LINE
  5
13A
100
AcDbEntity
  8
sawtooth
  6
ByLayer
 62
  256
370
   -1
100
AcDbLine
 10
0.05856495267725338
 20
-0.5163745602399399
 11
0.06391573372443794
 21
-0.4760433177636144
  0
LINE
  5
13B
100
AcDbEntity
  8
sawtooth
  6
ByLayer
 62
  256
370
   -1
100
AcDbLine
 10
0.06391573372443794
 20
-0.4760433177636144
 11
0.07971534820467081
 21
-0.5135348122627017
  0
LINE
  5
13C
100
AcDbEntity
  8
sawtooth
  6
ByLayer
 62
  256
370
   -1
100
AcDbLine
 10
0.07971534820467081
 20
-0.5135348122627017
 11
0.08340581761954904
 21
-0.4730178971160999
  0
LINE
  5
13D
100
AcDbEntity
  8
sawtooth
  6
ByLayer
 62
  256
370
   -1
100
AcDbLine
 10
0.08340581761954904
 20
-0.4730178971160999
 11
0.1007313256215009
 21
-0.5098291284181549
  0
LINE
  5
13E
100
AcDbEntity
  8
sawtooth
  6
ByLayer
 62
  256
370
   -1
100
AcDbLine
 10
0.1007313256215009
 20
-0.5098291284181549
 11
0.1027552604377661
 21
-0.4691948612861075
  0
LINE
  5
13F
100
AcDbEntity
  8
sawtooth
  6
ByLayer
 62
  256
370
   -1
100
AcDbLine
 10
0.1027552604377661
 20
-0.4691948612861075
 11
0.1215774472355021
 21
-0.5052637573275753
  0
LINE
  5
140
100
AcDbEntity
  8
sawtooth
  6
ByLayer
 62
  256
370
   -1
100
AcDbLine
 10
0.1215774472355021
 20
-0.5052637573275753
 11
0.1219314346411926
 21
-0.4645806567769082
  0
LINE
  5
141
100
AcDbEntity
  8
sawtooth
  6
ByLayer
 62
  256
370
   -1
100
AcDbLine
 10
0.1219314346411926
 20
-0.4645806567769082
 11
0.1422185617697438
 21
-0.4998463972394178
  0
LINE
  5
142
100
AcDbEntity
  8
sawtooth
  6
ByLayer
 62
  256
370
   -1
100
AcDbLine
 10
0.1422185617697438
 20
-0.4998463972394178
 11
0.1409020048620123
 21
-0.459183064181148
  0
LINE
  5
143
100
AcDbEntity
  8
sawtooth
  6
ByLayer
 62
  256
370
   -1
100
AcDbLine
 10
0.1409020048620123
 20
-0.459183064181148
 11
0.1626198636356075
 21
-0.4935861830483271
  0
LINE
  5
144
100
AcDbEntity
  8
sawtooth
  6
ByLayer
 62
  256
370
   -1
100
AcDbLine
 10
0.1626198636356075
 20
-0.4935861830483271
 11
0.159634982427238
 21
-0.4530111850610073
  0
LINE
  5
145
100
AcDbEntity
  8
sawtooth
  6
ByLayer
 62
  256
370
   -1
100
AcDbLine
 10
0.159634982427238
 20
-0.4530111850610073
 11
0.1827469516228863
 21
-0.4864936708916394
  0
LINE
  5
146
100
AcDbEntity
  8
sawtooth
  6
ByLayer
 62
  256
370
   -1
100
AcDbLine
 10
0.1827469516228863
 20
-0.4864936708916394
 11
0.178098779298847
 21
-0.4460754266009095
  0
LINE
  5
147
100
AcDbEntity
  8
sawtooth
  6
ByLayer
 62
  256
370
   -1
100
AcDbLine
 10
0.178098779298847
 20
-0.4460754266009095
 11
0.2025658869080064
 21
-0.478580820349346
  0
LINE
  5
148
100
AcDbEntity
  8
sawtooth
  6
ByLayer
 62
  256
370
   -1
100
AcDbLine
 10
0.2025658869080064
 20
-0.478580820349346
 11
0.1962622613383631
 21
-0.438387484058652
  0
LINE
  5
149
100
AcDbEntity
  8
sawtooth
  6
ByLayer
 62
  256
370
   -1
100
AcDbLine
 10
0.1962622613383631
 20
-0.438387484058652
 11
0.2220432502825598
 21
-0.4698609742775375
  0
LINE
  5
14A
100
AcDbEntity
  8
sawtooth
  6
ByLayer
 62
  256
370
   -1
100
AcDbLine
 10
0.2220432502825598
 20
-0.4698609742775375
 11
0.2140948008060535
 21
-0.4299603210445576
  0
LINE
  5
14B
100
AcDbEntity
  8
sawtooth
  6
ByLayer
 62
  256
370
   -1
100
AcDbLine
 10
0.2140948008060535
 20
-0.4299603210445576
 11
0.2411461985056532
 21
-0.4603488363093279
  0
LINE
  5
14C
100
AcDbEntity
  8
sawtooth
  6
ByLayer
 62
  256
370
   -1
100
AcDbLine
 10
0.2411461985056532
 20
-0.4603488363093279
 11
0.2315663280062305
 21
-0.4208081476618931
  0
LINE
  5
14D
100
AcDbEntity
  8
sawtooth
  6
ByLayer
 62
  256
370
   -1
100
AcDbLine
 10
0.2315663280062305
 20
-0.4208081476618931
 11
0.259842519685039
 21
-0.4500604460612045
  0
LINE
  5
14E
100
AcDbEntity
  8
sawtooth
  6
ByLayer
 62
  256
370
   -1
100
AcDbLine
 10
0.259842519685039
 20
-0.4500604460612045
 11
0.2486473819915572
 21
-0.4109463965454223
  0
LINE
  5
14F
100
AcDbEntity
  8
sawtooth
  6
ByLayer
 62
  256
370
   -1
100
AcDbLine
 10
0.2486473819915572
 20
-0.4109463965454223
 11
0.2781006875936552
 21
-0.4390131520866049
  0
LINE
  5
150
100
AcDbEntity
  8
sawtooth
  6
ByLayer
 62
  256
370
   -1
100
AcDbLine
 10
0.2781006875936552
 20
-0.4390131520866049
 11
0.2653091602408725
 21
-0.4003916968384907
  0
LINE
  5
151
100
AcDbEntity
  8
sawtooth
  6
ByLayer
 62
  256
370
   -1
100
AcDbLine
 10
0.2653091602408725
 20
-0.4003916968384907
 11
0.2958899148299736
 21
-0.4272255826223322
  0
LINE
  5
152
100
AcDbEntity
  8
sawtooth
  6
ByLayer
 62
  256
370
   -1
100
AcDbLine
 10
0.2958899148299736
 20
-0.4272255826223322
 11
0.2815235672267564
 21
-0.3891618461525291
  0
LINE
  5
153
100
AcDbEntity
  8
sawtooth
  6
ByLayer
 62
  256
370
   -1
100
AcDbLine
 10
0.2815235672267564
 20
-0.3891618461525291
 11
0.3131802047325268
 21
-0.4147176141771324
  0
LINE
  5
154
100
AcDbEntity
  8
sawtooth
  6
ByLayer
 62
  256
370
   -1
100
AcDbLine
 10
0.3131802047325268
 20
-0.4147176141771324
 11
0.2972632617909443
 21
-0.3772757805562548
  0
LINE
  5
155
100
AcDbEntity
  8
sawtooth
  6
ByLayer
 62
  256
370
   -1
100
AcDbLine
 10
0.2972632617909443
 20
-0.3772757805562548
 11
0.3299424019610619
 21
-0.4015103380154056
  0
LINE
  5
156
100
AcDbEntity
  8
sawtooth
  6
ByLayer
 62
  256
370
   -1
100
AcDbLine
 10
0.3299424019610619
 20
-0.4015103380154056
 11
0.3125017032477067
 21
-0.3647535426451744
  0
LINE
  5
157
100
AcDbEntity
  8
sawtooth
  6
ByLayer
 62
  256
370
   -1
100
AcDbLine
 10
0.3125017032477067
 20
-0.3647535426451744
 11
0.3461482416590433
 21
-0.3876260245925611
  0
LINE
  5
158
100
AcDbEntity
  8
sawtooth
  6
ByLayer
 62
  256
370
   -1
100
AcDbLine
 10
0.3461482416590433
 20
-0.3876260245925611
 11
0.3272131961374477
 21
-0.3516162477452357
  0
LINE
  5
159
100
AcDbEntity
  8
sawtooth
  6
ByLayer
 62
  256
370
   -1
100
AcDbLine
 10
0.3272131961374477
 20
-0.3516162477452357
 11
0.3617703971145915
 21
-0.3730880860019937
  0
LINE
  5
15A
100
AcDbEntity
  8
sawtooth
  6
ByLayer
 62
  256
370
   -1
100
AcDbLine
 10
0.3617703971145915
 20
-0.3730880860019937
 11
0.341372933555065
 21
-0.3378860483076091
  0
LINE
  5
15B
100
AcDbEntity
  8
sawtooth
  6
ByLayer
 62
  256
370
   -1
100
AcDbLine
 10
0.341372933555065
 20
-0.3378860483076091
 11
0.3767825258395044
 21
-0.3579210364969953
  0
LINE
  5
15C
100
AcDbEntity
  8
sawtooth
  6
ByLayer
 62
  256
370
   -1
100
AcDbLine
 10
0.3767825258395044
 20
-0.3579210364969953
 11
0.3549570389800013
 21
-0.3235860965546458
  0
LINE
  5
15D
100
AcDbEntity
  8
sawtooth
  6
ByLayer
 62
  256
370
   -1
100
AcDbLine
 10
0.3549570389800013
 20
-0.3235860965546458
 11
0.3911593139886503
 21
-0.3421504511541797
  0
LINE
  5
15E
100
AcDbEntity
  8
sawtooth
  6
ByLayer
 62
  256
370
   -1
100
AcDbLine
 10
0.3911593139886503
 20
-0.3421504511541797
 11
0.3679426065374617
 21
-0.3087405054399914
  0
LINE
  5
15F
100
AcDbEntity
  8
sawtooth
  6
ByLayer
 62
  256
370
   -1
100
AcDbLine
 10
0.3679426065374617
 20
-0.3087405054399914
 11
0.4048765190448362
 21
-0.3258029227481187
  0
LINE
  5
160
100
AcDbEntity
  8
sawtooth
  6
ByLayer
 62
  256
370
   -1
100
AcDbLine
 10
0.4048765190448362
 20
-0.3258029227481187
 11
0.3803077396228985
 21
-0.2933743079886929
  0
LINE
  5
161
100
AcDbEntity
  8
sawtooth
  6
ByLayer
 62
  256
370
   -1
100
AcDbLine
 10
0.3803077396228985
 20
-0.2933743079886929
 11
0.417911010697179
 21
-0.3089060169099052
  0
LINE
  5
162
100
AcDbEntity
  8
sawtooth
  6
ByLayer
 62
  256
370
   -1
100
AcDbLine
 10
0.417911010697179
 20
-0.3089060169099052
 11
0.3920315878246418
 21
-0.277513415085853
  0
LINE
  5
163
100
AcDbEntity
  8
sawtooth
  6
ByLayer
 62
  256
370
   -1
100
AcDbLine
 10
0.3920315878246418
 20
-0.277513415085853
 11
0.4302408098440389
 21
-0.2914882256452666
  0
LINE
  5
164
100
AcDbEntity
  8
sawtooth
  6
ByLayer
 62
  256
370
   -1
100
AcDbLine
 10
0.4302408098440389
 20
-0.2914882256452666
 11
0.4030943820824087
 21
-0.2611845717850194
  0
LINE
  5
165
100
AcDbEntity
  8
sawtooth
  6
ByLayer
 62
  256
370
   -1
100
AcDbLine
 10
0.4030943820824087
 20
-0.2611845717850194
 11
0.4418451256547599
 21
-0.2735789192905945
  0
LINE
  5
166
100
AcDbEntity
  8
sawtooth
  6
ByLayer
 62
  256
370
   -1
100
AcDbLine
 10
0.4418451256547599
 20
-0.2735789192905945
 11
0.4134774680224128
 21
-0.2444153122099706
  0
LINE
  5
167
100
AcDbEntity
  8
sawtooth
  6
ByLayer
 62
  256
370
   -1
100
AcDbLine
 10
0.4134774680224128
 20
-0.2444153122099706
 11
0.4527043906277116
 21
-0.2552082969879164
  0
LINE
  5
168
100
AcDbEntity
  8
sawtooth
  6
ByLayer
 62
  256
370
   -1
100
AcDbLine
 10
0.4527043906277116
 20
-0.2552082969879164
 11
0.423163337412857
 21
-0.2272339131259578
  0
LINE
  5
169
100
AcDbEntity
  8
sawtooth
  6
ByLayer
 62
  256
370
   -1
100
AcDbLine
 10
0.423163337412857
 20
-0.2272339131259578
 11
0.4628002935855249
 21
-0.2364073357623072
  0
LINE
  5
16A
100
AcDbEntity
  8
sawtooth
  6
ByLayer
 62
  256
370
   -1
100
AcDbLine
 10
0.4628002935855249
 20
-0.2364073357623072
 11
0.4321356576867743
 21
-0.209669346258679
  0
LINE
  5
16B
100
AcDbEntity
  8
sawtooth
  6
ByLayer
 62
  256
370
   -1
100
AcDbLine
 10
0.4321356576867743
 20
-0.209669346258679
 11
0.4721158105518783
 21
-0.2172077382876201
  0
LINE
  5
16C
100
AcDbEntity
  8
sawtooth
  6
ByLayer
 62
  256
370
   -1
100
AcDbLine
 10
0.4721158105518783
 20
-0.2172077382876201
 11
0.44037929948243
 21
-0.1917512294413962
  0
LINE
  5
16D
100
AcDbEntity
  8
sawtooth
  6
ByLayer
 62
  256
370
   -1
100
AcDbLine
 10
0.44037929948243
 20
-0.1917512294413962
 11
0.4806352334577745
 21
-0.197641879428604
  0
LINE
  5
16E
100
AcDbEntity
  8
sawtooth
  6
ByLayer
 62
  256
370
   -1
100
AcDbLine
 10
0.4806352334577745
 20
-0.197641879428604
 11
0.4478803621548479
 21
-0.1735097766725699
  0
LINE
  5
16F
100
AcDbEntity
  8
sawtooth
  6
ByLayer
 62
  256
370
   -1
100
AcDbLine
 10
0.4478803621548479
 20
-0.1735097766725699
 11
0.4883441966288971
 21
-0.1777427516495605
  0
LINE
  5
170
100
AcDbEntity
  8
sawtooth
  6
ByLayer
 62
  256
370
   -1
100
AcDbLine
 10
0.4883441966288971
 20
-0.1777427516495605
 11
0.4546261972154429
 21
-0.1549757471682198
  0
LINE
  5
171
100
AcDbEntity
  8
sawtooth
  6
ByLayer
 62
  256
370
   -1
100
AcDbLine
 10
0.4546261972154429
 20
-0.1549757471682198
 11
0.4952297010093884
 21
-0.1575439093815818
  0
LINE
  5
172
100
AcDbEntity
  8
sawtooth
  6
ByLayer
 62
  256
370
   -1
100
AcDbLine
 10
0.4952297010093884
 20
-0.1575439093815818
 11
0.4606054296602338
 21
-0.1361803934949308
  0
LINE
  5
173
100
AcDbEntity
  8
sawtooth
  6
ByLayer
 62
  256
370
   -1
100
AcDbLine
 10
0.4606054296602338
 20
-0.1361803934949308
 11
0.501280136081197
 21
-0.1370794124421929
  0
LINE
  5
174
100
AcDbEntity
  8
sawtooth
  6
ByLayer
 62
  256
370
   -1
100
AcDbLine
 10
0.501280136081197
 20
-0.1370794124421929
 11
0.4658079771506738
 21
-0.117155408870953
  0
LINE
  5
175
100
AcDbEntity
  8
sawtooth
  6
ByLayer
 62
  256
370
   -1
100
AcDbLine
 10
0.4658079771506738
 20
-0.117155408870953
 11
0.5064852994420393
 21
-0.1163837686027911
  0
LINE
  5
176
100
AcDbEntity
  8
sawtooth
  6
ByLayer
 62
  256
370
   -1
100
AcDbLine
 10
0.5064852994420393
 20
-0.1163837686027911
 11
0.4702250670147533
 21
-0.09793287372426891
  0
LINE
  5
177
100
AcDbEntity
  8
sawtooth
  6
ByLayer
 62
  256
370
   -1
100
AcDbLine
 10
0.4702250670147533
 20
-0.09793287372426891
 11
0.5108364140089567
 21
-0.09549187540073764
  0
LINE
  5
178
100
AcDbEntity
  8
sawtooth
  6
ByLayer
 62
  256
370
   -1
100
AcDbLine
 10
0.5108364140089567
 20
-0.09549187540073764
 11
0.4738492510397104
 21
-0.0785452015977314
  0
LINE
  5
179
100
AcDbEntity
  8
sawtooth
  6
ByLayer
 62
  256
370
   -1
100
AcDbLine
 10
0.4738492510397104
 20
-0.0785452015977314
 11
0.5143261428184633
 21
-0.0744389612942172
  0
LINE
  5
17A
100
AcDbEntity
  8
sawtooth
  6
ByLayer
 62
  256
370
   -1
100
AcDbLine
 10
0.5143261428184633
 20
-0.0744389612942172
 11
0.4766744180314021
 21
-0.05902508449250085
  0
LINE
  5
17B
100
AcDbEntity
  8
sawtooth
  6
ByLayer
 62
  256
370
   -1
100
AcDbLine
 10
0.4766744180314021
 20
-0.05902508449250085
 11
0.5169486013983263
 21
-0.05326052625908417
  0
LINE
  5
17C
100
AcDbEntity
  8
sawtooth
  6
ByLayer
 62
  256
370
   -1
100
AcDbLine
 10
0.5169486013983263
 20
-0.05326052625908417
 11
0.4786958041191603
 21
-0.03940543774193236
  0
LINE
  5
17D
100
AcDbEntity
  8
sawtooth
  6
ByLayer
 62
  256
370
   -1
100
AcDbLine
 10
0.4786958041191603
 20
-0.03940543774193236
 11
0.5186993676901173
 21
-0.0319922819278763
  0
LINE
  5
17E
100
AcDbEntity
  8
sawtooth
  6
ByLayer
 62
  256
370
   -1
100
AcDbLine
 10
0.5186993676901173
 20
-0.0319922819278763
 11
0.4799100007887551
 21
-0.01971934450888067
  0
LINE
  5
17F
100
AcDbEntity
  8
sawtooth
  6
ByLayer
 62
  256
370
   -1
100
AcDbLine
 10
0.4799100007887551
 20
-0.01971934450888067
 11
0.5195754895058033
 21
-0.01067009137191967
  0
LINE
  5
180
100
AcDbEntity
  8
sawtooth
  6
ByLayer
 62
  256
370
   -1
100
AcDbLine
 10
0.5195754895058033
 20
-0.01067009137191967
 11
0.4803149606299212
 21
-1.17643235823604e-16
  0
LINE
  5
181
100
AcDbEntity
  8
sawtooth
  6
ByLayer
 62
  256
370
   -1
100
AcDbLine
 10
1.710629921259843
 20
0
 11
1.788870684129943
 21
0.02320490520323101
  0
LINE
  5
182
100
AcDbEntity
  8
sawtooth
  6
ByLayer
 62
  256
370
   -1
100
AcDbLine
 10
1.788870684129943
 20
0.02320490520323101
 11
1.708924749871453
 21
0.03959795847354818
  0
LINE
  5
183
100
AcDbEntity
  8
sawtooth
  6
ByLayer
 62
  256
370
   -1
100
AcDbLine
 10
1.708924749871453
 20
0.03959795847354818
 11
1.784881074118908
 21
0.06944291461025028
  0
LINE
  5
184
100
AcDbEntity
  8
sawtooth
  6
ByLayer
 62
  256
370
   -1
100
AcDbLine
 10
1.784881074118908
 20
0.06944291461025028
 11
1.703821860198658
 21
0.07890274751666487
  0
LINE
  5
185
100
AcDbEntity
  8
sawtooth
  6
ByLayer
 62
  256
370
   -1
100
AcDbLine
 10
1.703821860198658
 20
0.07890274751666487
 11
1.776931391773519
 21
0.1151667929734333
  0
LINE
  5
186
100
AcDbEntity
  8
sawtooth
  6
ByLayer
 62
  256
370
   -1
100
AcDbLine
 10
1.776931391773519
 20
0.1151667929734333
 11
1.69535903225125
 21
0.1176233682228106
  0
LINE
  5
187
100
AcDbEntity
  8
sawtooth
  6
ByLayer
 62
  256
370
   -1
100
AcDbLine
 10
1.69535903225125
 20
0.1176233682228106
 11
1.765080493760512
 21
0.1600380166947566
  0
LINE
  5
188
100
AcDbEntity
  8
sawtooth
  6
ByLayer
 62
  256
370
   -1
100
AcDbLine
 10
1.765080493760512
 20
0.1600380166947566
 11
1.683598921846469
 21
0.1554731466634302
  0
LINE
  5
189
100
AcDbEntity
  8
sawtooth
  6
ByLayer
 62
  256
370
   -1
100
AcDbLine
 10
1.683598921846469
 20
0.1554731466634302
 11
1.74941611998251
 21
0.2037243749328472
  0
LINE
  5
18A
100
AcDbEntity
  8
sawtooth
  6
ByLayer
 62
  256
370
   -1
100
AcDbLine
 10
1.74941611998251
 20
0.2037243749328472
 11
1.668628596727251
 21
0.1921718563214215
  0
LINE
  5
18B
100
AcDbEntity
  8
sawtooth
  6
ByLayer
 62
  256
370
   -1
100
AcDbLine
 10
1.668628596727251
 20
0.1921718563214215
 11
1.730054243982483
 21
0.2459024291758223
  0
LINE
  5
18C
100
AcDbEntity
  8
sawtooth
  6
ByLayer
 62
  256
370
   -1
100
AcDbLine
 10
1.730054243982483
 20
0.2459024291758223
 11
1.650558891943124
 21
0.2274477927902258
  0
LINE
  5
18D
100
AcDbEntity
  8
sawtooth
  6
ByLayer
 62
  256
370
   -1
100
AcDbLine
 10
1.650558891943124
 20
0.2274477927902258
 11
1.707138214316212
 21
0.2862599078668696
  0
LINE
  5
18E
100
AcDbEntity
  8
sawtooth
  6
ByLayer
 62
  256
370
   -1
100
AcDbLine
 10
1.707138214316212
 20
0.2862599078668696
 11
1.629523589266275
 21
0.261039785378192
  0
LINE
  5
18F
100
AcDbEntity
  8
sawtooth
  6
ByLayer
 62
  256
370
   -1
100
AcDbLine
 10
1.629523589266275
 20
0.261039785378192
 11
1.680837693249732
 21
0.3244980183536
  0
LINE
  5
190
100
AcDbEntity
  8
sawtooth
  6
ByLayer
 62
  256
370
   -1
100
AcDbLine
 10
1.680837693249732
 20
0.3244980183536
 11
1.605678426718119
 21
0.292699130725003
  0
LINE
  5
191
100
AcDbEntity
  8
sawtooth
  6
ByLayer
 62
  256
370
   -1
100
AcDbLine
 10
1.605678426718119
 20
0.292699130725003
 11
1.651347400639277
 21
0.3603336590443075
  0
LINE
  5
192
100
AcDbEntity
  8
sawtooth
  6
ByLayer
 62
  256
370
   -1
100
AcDbLine
 10
1.651347400639277
 20
0.3603336590443075
 11
1.579199945539474
 21
0.3221914341143414
  0
LINE
  5
193
100
AcDbEntity
  8
sawtooth
  6
ByLayer
 62
  256
370
   -1
100
AcDbLine
 10
1.579199945539474
 20
0.3221914341143414
 11
1.618885672293589
 21
0.3935015153931055
  0
LINE
  5
194
100
AcDbEntity
  8
sawtooth
  6
ByLayer
 62
  256
370
   -1
100
AcDbLine
 10
1.618885672293589
 20
0.3935015153931055
 11
1.550284183140982
 21
0.3492983448503614
  0
LINE
  5
195
100
AcDbEntity
  8
sawtooth
  6
ByLayer
 62
  256
370
   -1
100
AcDbLine
 10
1.550284183140982
 20
0.3492983448503614
 11
1.58369284349198
 21
0.4237560241959995
  0
LINE
  5
196
100
AcDbEntity
  8
sawtooth
  6
ByLayer
 62
  256
370
   -1
100
AcDbLine
 10
1.58369284349198
 20
0.4237560241959995
 11
1.519145221710705
 21
0.3738191728498474
  0
LINE
  5
197
100
AcDbEntity
  8
sawtooth
  6
ByLayer
 62
  256
370
   -1
100
AcDbLine
 10
1.519145221710705
 20
0.3738191728498474
 11
1.54602946962601
 21
0.4508731916549341
  0
LINE
  5
198
100
AcDbEntity
  8
sawtooth
  6
ByLayer
 62
  256
370
   -1
100
AcDbLine
 10
1.54602946962601
 20
0.4508731916549341
 11
1.48601360322451
 21
0.3955723744813738
  0
LINE
  5
199
100
AcDbEntity
  8
sawtooth
  6
ByLayer
 62
  256
370
   -1
100
AcDbLine
 10
1.48601360322451
 20
0.3955723744813738
 11
1.506174397138527
 21
0.4746522517495055
  0
LINE
  5
19A
100
AcDbEntity
  8
sawtooth
  6
ByLayer
 62
  256
370
   -1
100
AcDbLine
 10
1.506174397138527
 20
0.4746522517495055
 11
1.451134622593935
 21
0.4143968966508365
  0
LINE
  5
19B
100
AcDbEntity
  8
sawtooth
  6
ByLayer
 62
  256
370
   -1
100
AcDbLine
 10
1.451134622593935
 20
0.4143968966508365
 11
1.464422699042166
 21
0.4949171526383344
  0
LINE
  5
19C
100
AcDbEntity
  8
sawtooth
  6
ByLayer
 62
  256
370
   -1
100
AcDbLine
 10
1.464422699042166
 20
0.4949171526383344
 11
1.414766511588487
 21
0.4301533691822136
  0
LINE
  5
19D
100
AcDbEntity
  8
sawtooth
  6
ByLayer
 62
  256
370
   -1
100
AcDbLine
 10
1.414766511588487
 20
0.4301533691822136
 11
1.421083490301998
 21
0.5115178600853052
  0
LINE
  5
19E
100
AcDbEntity
  8
sawtooth
  6
ByLayer
 62
  256
370
   -1
100
AcDbLine
 10
1.421083490301998
 20
0.5115178600853052
 11
1.377178526977968
 21
0.4427251366655874
  0
LINE
  5
19F
100
AcDbEntity
  8
sawtooth
  6
ByLayer
 62
  256
370
   -1
100
AcDbLine
 10
1.377178526977968
 20
0.4427251366655874
 11
1.376477639256481
 21
0.5243314682605568
  0
LINE
  5
1A0
100
AcDbEntity
  8
sawtooth
  6
ByLayer
 62
  256
370
   -1
100
AcDbLine
 10
1.376477639256481
 20
0.5243314682605568
 11
1.338648957049555
 21
0.4520191221329854
  0
LINE
  5
1A1
100
AcDbEntity
  8
sawtooth
  6
ByLayer
 62
  256
370
   -1
100
AcDbLine
 10
1.338648957049555
 20
0.4520191221329854
 11
1.330935392020541
 21
0.5332631096922467
  0
LINE
  5
1A2
100
AcDbEntity
  8
sawtooth
  6
ByLayer
 62
  256
370
   -1
100
AcDbLine
 10
1.330935392020541
 20
0.5332631096922467
 11
1.299463061258689
 21
0.4579665161676865
  0
LINE
  5
1A3
100
AcDbEntity
  8
sawtooth
  6
ByLayer
 62
  256
370
   -1
100
AcDbLine
 10
1.299463061258689
 20
0.4579665161676865
 11
1.284793927458883
 21
0.538246657632121
  0
LINE
  5
1A4
100
AcDbEntity
  8
sawtooth
  6
ByLayer
 62
  256
370
   -1
100
AcDbLine
 10
1.284793927458883
 20
0.538246657632121
 11
1.259910958267866
 21
0.4605232863450678
  0
LINE
  5
1A5
100
AcDbEntity
  8
sawtooth
  6
ByLayer
 62
  256
370
   -1
100
AcDbLine
 10
1.259910958267866
 20
0.4605232863450678
 11
1.238394860831644
 21
0.5392452156348231
  0
LINE
  5
1A6
100
AcDbEntity
  8
sawtooth
  6
ByLayer
 62
  256
370
   -1
100
AcDbLine
 10
1.238394860831644
 20
0.5392452156348231
 11
1.220285478009567
 21
0.4596705032332712
  0
LINE
  5
1A7
100
AcDbEntity
  8
sawtooth
  6
ByLayer
 62
  256
370
   -1
100
AcDbLine
 10
1.220285478009567
 20
0.4596705032332712
 11
1.192081714594526
 21
0.5362513907262655
  0
LINE
  5
1A8
100
AcDbEntity
  8
sawtooth
  6
ByLayer
 62
  256
370
   -1
100
AcDbLine
 10
1.192081714594526
 20
0.5362513907262655
 11
1.180879993675888
 21
0.4554144805400939
  0
LINE
  5
1A9
100
AcDbEntity
  8
sawtooth
  6
ByLayer
 62
  256
370
   -1
100
AcDbLine
 10
1.180879993675888
 20
0.4554144805400939
 11
1.146197375078726
 21
0.529287348138624
  0
LINE
  5
1AA
100
AcDbEntity
  8
sawtooth
  6
ByLayer
 62
  256
370
   -1
100
AcDbLine
 10
1.146197375078726
 20
0.529287348138624
 11
1.141986249686071
 21
0.4477867283685046
  0
LINE
  5
1AB
100
AcDbEntity
  8
sawtooth
  6
ByLayer
 62
  256
370
   -1
100
AcDbLine
 10
1.141986249686071
 20
0.4477867283685046
 11
1.101081553880499
 21
0.5184046472067134
  0
LINE
  5
1AC
100
AcDbEntity
  8
sawtooth
  6
ByLayer
 62
  256
370
   -1
100
AcDbLine
 10
1.101081553880499
 20
0.5184046472067134
 11
1.103892201712892
 21
0.4368437199268665
  0
LINE
  5
1AD
100
AcDbEntity
  8
sawtooth
  6
ByLayer
 62
  256
370
   -1
100
AcDbLine
 10
1.103892201712892
 20
0.4368437199268665
 11
1.057068272755362
 21
0.5036838596407116
  0
LINE
  5
1AE
100
AcDbEntity
  8
sawtooth
  6
ByLayer
 62
  256
370
   -1
100
AcDbLine
 10
1.057068272755362
 20
0.5036838596407116
 11
1.06687988475961
 21
0.4226664734210593
  0
LINE
  5
1AF
100
AcDbEntity
  8
sawtooth
  6
ByLayer
 62
  256
370
   -1
100
AcDbLine
 10
1.06687988475961
 20
0.4226664734210593
 11
1.014483390637871
 21
0.4852339730014069
  0
LINE
  5
1B0
100
AcDbEntity
  8
sawtooth
  6
ByLayer
 62
  256
370
   -1
100
AcDbLine
 10
1.014483390637871
 20
0.4852339730014069
 11
1.031223325071477
 21
0.4053599522240302
  0
LINE
  5
1B1
100
AcDbEntity
  8
sawtooth
  6
ByLayer
 62
  256
370
   -1
100
AcDbLine
 10
1.031223325071477
 20
0.4053599522240302
 11
0.9736421910960864
 21
0.4631915837944292
  0
LINE
  5
1B2
100
AcDbEntity
  8
sawtooth
  6
ByLayer
 62
  256
370
   -1
100
AcDbLine
 10
0.9736421910960864
 20
0.4631915837944292
 11
0.9971865113412908
 21
0.3850522877637028
  0
LINE
  5
1B3
100
AcDbEntity
  8
sawtooth
  6
ByLayer
 62
  256
370
   -1
100
AcDbLine
 10
0.9971865113412908
 20
0.3850522877637028
 11
0.9348470480823368
 21
0.4377198861575137
  0
LINE
  5
1B4
100
AcDbEntity
  8
sawtooth
  6
ByLayer
 62
  256
370
   -1
100
AcDbLine
 10
0.9348470480823368
 20
0.4377198861575137
 11
0.9650214402294768
 21
0.3618938308827149
  0
LINE
  5
1B5
100
AcDbEntity
  8
sawtooth
  6
ByLayer
 62
  256
370
   -1
100
AcDbLine
 10
0.9650214402294768
 20
0.3618938308827149
 11
0.8983851872622692
 21
0.4090074636282011
  0
LINE
  5
1B6
100
AcDbEntity
  8
sawtooth
  6
ByLayer
 62
  256
370
   -1
100
AcDbLine
 10
0.8983851872622692
 20
0.4090074636282011
 11
0.9349662506689786
 21
0.336056038693382
  0
LINE
  5
1B7
100
AcDbEntity
  8
sawtooth
  6
ByLayer
 62
  256
370
   -1
100
AcDbLine
 10
0.9349662506689786
 20
0.336056038693382
 11
0.8645265594965132
 21
0.3772668929373058
  0
LINE
  5
1B8
100
AcDbEntity
  8
sawtooth
  6
ByLayer
 62
  256
370
   -1
100
AcDbLine
 10
0.8645265594965132
 20
0.3772668929373058
 11
0.9072434607679165
 21
0.3077302051692261
  0
LINE
  5
1B9
100
AcDbEntity
  8
sawtooth
  6
ByLayer
 62
  256
370
   -1
100
AcDbLine
 10
0.9072434607679165
 20
0.3077302051692261
 11
0.8335218422189548
 21
0.3427331701651745
  0
LINE
  5
1BA
100
AcDbEntity
  8
sawtooth
  6
ByLayer
 62
  256
370
   -1
100
AcDbLine
 10
0.8335218422189548
 20
0.3427331701651745
 11
0.8820583203633674
 21
0.2771260448713226
  0
LINE
  5
1BB
100
AcDbEntity
  8
sawtooth
  6
ByLayer
 62
  256
370
   -1
100
AcDbLine
 10
0.8820583203633674
 20
0.2771260448713226
 11
0.8056005835087208
 21
0.3056619709129257
  0
LINE
  5
1BC
100
AcDbEntity
  8
sawtooth
  6
ByLayer
 62
  256
370
   -1
100
AcDbLine
 10
0.8056005835087208
 20
0.3056619709129257
 11
0.8595972914233809
 21
0.2444701402950638
  0
LINE
  5
1BD
100
AcDbEntity
  8
sawtooth
  6
ByLayer
 62
  256
370
   -1
100
AcDbLine
 10
0.8595972914233809
 20
0.2444701402950638
 11
0.7809695025965129
 21
0.2663277573697516
  0
LINE
  5
1BE
100
AcDbEntity
  8
sawtooth
  6
ByLayer
 62
  256
370
   -1
100
AcDbLine
 10
0.7809695025965129
 20
0.2663277573697516
 11
0.8400266675478064
 21
0.2100042643326366
  0
LINE
  5
1BF
100
AcDbEntity
  8
sawtooth
  6
ByLayer
 62
  256
370
   -1
100
AcDbLine
 10
0.8400266675478064
 20
0.2100042643326366
 11
0.7598109593877485
 21
0.2250217462908953
  0
LINE
  5
1C0
100
AcDbEntity
  8
sawtooth
  6
ByLayer
 62
  256
370
   -1
100
AcDbLine
 10
0.7598109593877485
 20
0.2250217462908953
 11
0.8234913427886597
 21
0.1739835902711177
  0
LINE
  5
1C1
100
AcDbEntity
  8
sawtooth
  6
ByLayer
 62
  256
370
   -1
100
AcDbLine
 10
0.8234913427886597
 20
0.1739835902711177
 11
0.7422816043336218
 21
0.1820497529306832
  0
LINE
  5
1C2
100
AcDbEntity
  8
sawtooth
  6
ByLayer
 62
  256
370
   -1
100
AcDbLine
 10
0.7422816043336218
 20
0.1820497529306832
 11
0.8101137389052564
 21
0.1366748025787337
  0
LINE
  5
1C3
100
AcDbEntity
  8
sawtooth
  6
ByLayer
 62
  256
370
   -1
100
AcDbLine
 10
0.8101137389052564
 20
0.1366748025787337
 11
0.7285112186459723
 21
0.1377299268933765
  0
LINE
  5
1C4
100
AcDbEntity
  8
sawtooth
  6
ByLayer
 62
  256
370
   -1
100
AcDbLine
 10
0.7285112186459723
 20
0.1377299268933765
 11
0.7999928989963376
 21
0.09835412246636278
  0
LINE
  5
1C5
100
AcDbEntity
  8
sawtooth
  6
ByLayer
 62
  256
370
   -1
100
AcDbLine
 10
0.7999928989963376
 20
0.09835412246636278
 11
0.7186017534425971
 21
0.09239039666481277
  0
LINE
  5
1C6
100
AcDbEntity
  8
sawtooth
  6
ByLayer
 62
  256
370
   -1
100
AcDbLine
 10
0.7186017534425971
 20
0.09239039666481277
 11
0.7932037542196184
 21
0.05930526284233056
  0
LINE
  5
1C7
100
AcDbEntity
  8
sawtooth
  6
ByLayer
 62
  256
370
   -1
100
AcDbLine
 10
0.7932037542196184
 20
0.05930526284233056
 11
0.7126265749368453
 21
0.04636684026389836
  0
LINE
  5
1C8
100
AcDbEntity
  8
sawtooth
  6
ByLayer
 62
  256
370
   -1
100
AcDbLine
 10
0.7126265749368453
 20
0.04636684026389836
 11
0.7897965690277129
 21
0.01981732780129953
  0
LINE
  5
1C9
100
AcDbEntity
  8
sawtooth
  6
ByLayer
 62
  256
370
   -1
100
AcDbLine
 10
0.7897965690277129
 20
0.01981732780129953
 11
0.7106299212598425
 21
6.605378404849898e-17
  0
LINE
  5
1CA
100
AcDbEntity
  8
sawtooth
  6
ByLayer
 62
  256
370
   -1
100
AcDbLine
 10
0.7106299212598425
 20
6.605378404849898e-17
 11
0.7897965690277129
 21
-0.01981732780129941
  0
LINE
  5
1CB
100
AcDbEntity
  8
sawtooth
  6
ByLayer
 62
  256
370
   -1
100
AcDbLine
 10
0.7897965690277129
 20
-0.01981732780129941
 11
0.7126265749368453
 21
-0.04636684026389822
  0
LINE
  5
1CC
100
AcDbEntity
  8
sawtooth
  6
ByLayer
 62
  256
370
   -1
100
AcDbLine
 10
0.7126265749368453
 20
-0.04636684026389822
 11
0.7932037542196184
 21
-0.05930526284233046
  0
LINE
  5
1CD
100
AcDbEntity
  8
sawtooth
  6
ByLayer
 62
  256
370
   -1
100
AcDbLine
 10
0.7932037542196184
 20
-0.05930526284233046
 11
0.7186017534425971
 21
-0.09239039666481265
  0
LINE
  5
1CE
100
AcDbEntity
  8
sawtooth
  6
ByLayer
 62
  256
370
   -1
100
AcDbLine
 10
0.7186017534425971
 20
-0.09239039666481265
 11
0.7999928989963376
 21
-0.09835412246636269
  0
LINE
  5
1CF
100
AcDbEntity
  8
sawtooth
  6
ByLayer
 62
  256
370
   -1
100
AcDbLine
 10
0.7999928989963376
 20
-0.09835412246636269
 11
0.7285112186459722
 21
-0.1377299268933764
  0
LINE
  5
1D0
100
AcDbEntity
  8
sawtooth
  6
ByLayer
 62
  256
370
   -1
100
AcDbLine
 10
0.7285112186459722
 20
-0.1377299268933764
 11
0.8101137389052564
 21
-0.1366748025787336
  0
LINE
  5
1D1
100
AcDbEntity
  8
sawtooth
  6
ByLayer
 62
  256
370
   -1
100
AcDbLine
 10
0.8101137389052564
 20
-0.1366748025787336
 11
0.7422816043336218
 21
-0.1820497529306831
  0
LINE
  5
1D2
100
AcDbEntity
  8
sawtooth
  6
ByLayer
 62
  256
370
   -1
100
AcDbLine
 10
0.7422816043336218
 20
-0.1820497529306831
 11
0.8234913427886597
 21
-0.1739835902711176
  0
LINE
  5
1D3
100
AcDbEntity
  8
sawtooth
  6
ByLayer
 62
  256
370
   -1
100
AcDbLine
 10
0.8234913427886597
 20
-0.1739835902711176
 11
0.7598109593877483
 21
-0.2250217462908952
  0
LINE
  5
1D4
100
AcDbEntity
  8
sawtooth
  6
ByLayer
 62
  256
370
   -1
100
AcDbLine
 10
0.7598109593877483
 20
-0.2250217462908952
 11
0.8400266675478063
 21
-0.2100042643326364
  0
LINE
  5
1D5
100
AcDbEntity
  8
sawtooth
  6
ByLayer
 62
  256
370
   -1
100
AcDbLine
 10
0.8400266675478063
 20
-0.2100042643326364
 11
0.7809695025965129
 21
-0.2663277573697514
  0
LINE
  5
1D6
100
AcDbEntity
  8
sawtooth
  6
ByLayer
 62
  256
370
   -1
100
AcDbLine
 10
0.7809695025965129
 20
-0.2663277573697514
 11
0.8595972914233809
 21
-0.2444701402950637
  0
LINE
  5
1D7
100
AcDbEntity
  8
sawtooth
  6
ByLayer
 62
  256
370
   -1
100
AcDbLine
 10
0.8595972914233809
 20
-0.2444701402950637
 11
0.8056005835087205
 21
-0.3056619709129256
  0
LINE
  5
1D8
100
AcDbEntity
  8
sawtooth
  6
ByLayer
 62
  256
370
   -1
100
AcDbLine
 10
0.8056005835087205
 20
-0.3056619709129256
 11
0.8820583203633673
 21
-0.2771260448713225
  0
LINE
  5
1D9
100
AcDbEntity
  8
sawtooth
  6
ByLayer
 62
  256
370
   -1
100
AcDbLine
 10
0.8820583203633673
 20
-0.2771260448713225
 11
0.8335218422189546
 21
-0.3427331701651744
  0
LINE
  5
1DA
100
AcDbEntity
  8
sawtooth
  6
ByLayer
 62
  256
370
   -1
100
AcDbLine
 10
0.8335218422189546
 20
-0.3427331701651744
 11
0.9072434607679165
 21
-0.3077302051692259
  0
LINE
  5
1DB
100
AcDbEntity
  8
sawtooth
  6
ByLayer
 62
  256
370
   -1
100
AcDbLine
 10
0.9072434607679165
 20
-0.3077302051692259
 11
0.864526559496513
 21
-0.3772668929373056
  0
LINE
  5
1DC
100
AcDbEntity
  8
sawtooth
  6
ByLayer
 62
  256
370
   -1
100
AcDbLine
 10
0.864526559496513
 20
-0.3772668929373056
 11
0.9349662506689785
 21
-0.336056038693382
  0
LINE
  5
1DD
100
AcDbEntity
  8
sawtooth
  6
ByLayer
 62
  256
370
   -1
100
AcDbLine
 10
0.9349662506689785
 20
-0.336056038693382
 11
0.8983851872622691
 21
-0.409007463628201
  0
LINE
  5
1DE
100
AcDbEntity
  8
sawtooth
  6
ByLayer
 62
  256
370
   -1
100
AcDbLine
 10
0.8983851872622691
 20
-0.409007463628201
 11
0.9650214402294768
 21
-0.3618938308827149
  0
LINE
  5
1DF
100
AcDbEntity
  8
sawtooth
  6
ByLayer
 62
  256
370
   -1
100
AcDbLine
 10
0.9650214402294768
 20
-0.3618938308827149
 11
0.9348470480823365
 21
-0.4377198861575136
  0
LINE
  5
1E0
100
AcDbEntity
  8
sawtooth
  6
ByLayer
 62
  256
370
   -1
100
AcDbLine
 10
0.9348470480823365
 20
-0.4377198861575136
 11
0.9971865113412908
 21
-0.3850522877637029
  0
LINE
  5
1E1
100
AcDbEntity
  8
sawtooth
  6
ByLayer
 62
  256
370
   -1
100
AcDbLine
 10
0.9971865113412908
 20
-0.3850522877637029
 11
0.9736421910960864
 21
-0.4631915837944292
  0
LINE
  5
1E2
100
AcDbEntity
  8
sawtooth
  6
ByLayer
 62
  256
370
   -1
100
AcDbLine
 10
0.9736421910960864
 20
-0.4631915837944292
 11
1.031223325071477
 21
-0.4053599522240302
  0
LINE
  5
1E3
100
AcDbEntity
  8
sawtooth
  6
ByLayer
 62
  256
370
   -1
100
AcDbLine
 10
1.031223325071477
 20
-0.4053599522240302
 11
1.014483390637871
 21
-0.4852339730014069
  0
LINE
  5
1E4
100
AcDbEntity
  8
sawtooth
  6
ByLayer
 62
  256
370
   -1
100
AcDbLine
 10
1.014483390637871
 20
-0.4852339730014069
 11
1.06687988475961
 21
-0.4226664734210593
  0
LINE
  5
1E5
100
AcDbEntity
  8
sawtooth
  6
ByLayer
 62
  256
370
   -1
100
AcDbLine
 10
1.06687988475961
 20
-0.4226664734210593
 11
1.057068272755361
 21
-0.5036838596407116
  0
LINE
  5
1E6
100
AcDbEntity
  8
sawtooth
  6
ByLayer
 62
  256
370
   -1
100
AcDbLine
 10
1.057068272755361
 20
-0.5036838596407116
 11
1.103892201712892
 21
-0.4368437199268665
  0
LINE
  5
1E7
100
AcDbEntity
  8
sawtooth
  6
ByLayer
 62
  256
370
   -1
100
AcDbLine
 10
1.103892201712892
 20
-0.4368437199268665
 11
1.101081553880499
 21
-0.5184046472067134
  0
LINE
  5
1E8
100
AcDbEntity
  8
sawtooth
  6
ByLayer
 62
  256
370
   -1
100
AcDbLine
 10
1.101081553880499
 20
-0.5184046472067134
 11
1.141986249686071
 21
-0.4477867283685046
  0
LINE
  5
1E9
100
AcDbEntity
  8
sawtooth
  6
ByLayer
 62
  256
370
   -1
100
AcDbLine
 10
1.141986249686071
 20
-0.4477867283685046
 11
1.146197375078725
 21
-0.529287348138624
  0
LINE
  5
1EA
100
AcDbEntity
  8
sawtooth
  6
ByLayer
 62
  256
370
   -1
100
AcDbLine
 10
1.146197375078725
 20
-0.529287348138624
 11
1.180879993675888
 21
-0.4554144805400938
  0
LINE
  5
1EB
100
AcDbEntity
  8
sawtooth
  6
ByLayer
 62
  256
370
   -1
100
AcDbLine
 10
1.180879993675888
 20
-0.4554144805400938
 11
1.192081714594526
 21
-0.5362513907262654
  0
LINE
  5
1EC
100
AcDbEntity
  8
sawtooth
  6
ByLayer
 62
  256
370
   -1
100
AcDbLine
 10
1.192081714594526
 20
-0.5362513907262654
 11
1.220285478009567
 21
-0.4596705032332712
  0
LINE
  5
1ED
100
AcDbEntity
  8
sawtooth
  6
ByLayer
 62
  256
370
   -1
100
AcDbLine
 10
1.220285478009567
 20
-0.4596705032332712
 11
1.238394860831644
 21
-0.5392452156348231
  0
LINE
  5
1EE
100
AcDbEntity
  8
sawtooth
  6
ByLayer
 62
  256
370
   -1
100
AcDbLine
 10
1.238394860831644
 20
-0.5392452156348231
 11
1.259910958267866
 21
-0.4605232863450678
  0
LINE
  5
1EF
100
AcDbEntity
  8
sawtooth
  6
ByLayer
 62
  256
370
   -1
100
AcDbLine
 10
1.259910958267866
 20
-0.4605232863450678
 11
1.284793927458883
 21
-0.538246657632121
  0
LINE
  5
1F0
100
AcDbEntity
  8
sawtooth
  6
ByLayer
 62
  256
370
   -1
100
AcDbLine
 10
1.284793927458883
 20
-0.538246657632121
 11
1.299463061258689
 21
-0.4579665161676865
  0
LINE
  5
1F1
100
AcDbEntity
  8
sawtooth
  6
ByLayer
 62
  256
370
   -1
100
AcDbLine
 10
1.299463061258689
 20
-0.4579665161676865
 11
1.330935392020541
 21
-0.5332631096922467
  0
LINE
  5
1F2
100
AcDbEntity
  8
sawtooth
  6
ByLayer
 62
  256
370
   -1
100
AcDbLine
 10
1.330935392020541
 20
-0.5332631096922467
 11
1.338648957049555
 21
-0.4520191221329854
  0
LINE
  5
1F3
100
AcDbEntity
  8
sawtooth
  6
ByLayer
 62
  256
370
   -1
100
AcDbLine
 10
1.338648957049555
 20
-0.4520191221329854
 11
1.376477639256481
 21
-0.5243314682605568
  0
LINE
  5
1F4
100
AcDbEntity
  8
sawtooth
  6
ByLayer
 62
  256
370
   -1
100
AcDbLine
 10
1.376477639256481
 20
-0.5243314682605568
 11
1.377178526977968
 21
-0.4427251366655874
  0
LINE
  5
1F5
100
AcDbEntity
  8
sawtooth
  6
ByLayer
 62
  256
370
   -1
100
AcDbLine
 10
1.377178526977968
 20
-0.4427251366655874
 11
1.421083490301998
 21
-0.5115178600853053
  0
LINE
  5
1F6
100
AcDbEntity
  8
sawtooth
  6
ByLayer
 62
  256
370
   -1
100
AcDbLine
 10
1.421083490301998
 20
-0.5115178600853053
 11
1.414766511588487
 21
-0.4301533691822136
  0
LINE
  5
1F7
100
AcDbEntity
  8
sawtooth
  6
ByLayer
 62
  256
370
   -1
100
AcDbLine
 10
1.414766511588487
 20
-0.4301533691822136
 11
1.464422699042166
 21
-0.4949171526383346
  0
LINE
  5
1F8
100
AcDbEntity
  8
sawtooth
  6
ByLayer
 62
  256
370
   -1
100
AcDbLine
 10
1.464422699042166
 20
-0.4949171526383346
 11
1.451134622593935
 21
-0.4143968966508365
  0
LINE
  5
1F9
100
AcDbEntity
  8
sawtooth
  6
ByLayer
 62
  256
370
   -1
100
AcDbLine
 10
1.451134622593935
 20
-0.4143968966508365
 11
1.506174397138527
 21
-0.4746522517495056
  0
LINE
  5
1FA
100
AcDbEntity
  8
sawtooth
  6
ByLayer
 62
  256
370
   -1
100
AcDbLine
 10
1.506174397138527
 20
-0.4746522517495056
 11
1.48601360322451
 21
-0.3955723744813739
  0
LINE
  5
1FB
100
AcDbEntity
  8
sawtooth
  6
ByLayer
 62
  256
370
   -1
100
AcDbLine
 10
1.48601360322451
 20
-0.3955723744813739
 11
1.54602946962601
 21
-0.4508731916549342
  0
LINE
  5
1FC
100
AcDbEntity
  8
sawtooth
  6
ByLayer
 62
  256
370
   -1
100
AcDbLine
 10
1.54602946962601
 20
-0.4508731916549342
 11
1.519145221710705
 21
-0.3738191728498474
  0
LINE
  5
1FD
100
AcDbEntity
  8
sawtooth
  6
ByLayer
 62
  256
370
   -1
100
AcDbLine
 10
1.519145221710705
 20
-0.3738191728498474
 11
1.58369284349198
 21
-0.4237560241959997
  0
LINE
  5
1FE
100
AcDbEntity
  8
sawtooth
  6
ByLayer
 62
  256
370
   -1
100
AcDbLine
 10
1.58369284349198
 20
-0.4237560241959997
 11
1.550284183140982
 21
-0.3492983448503615
  0
LINE
  5
1FF
100
AcDbEntity
  8
sawtooth
  6
ByLayer
 62
  256
370
   -1
100
AcDbLine
 10
1.550284183140982
 20
-0.3492983448503615
 11
1.618885672293589
 21
-0.3935015153931057
  0
LINE
  5
200
100
AcDbEntity
  8
sawtooth
  6
ByLayer
 62
  256
370
   -1
100
AcDbLine
 10
1.618885672293589
 20
-0.3935015153931057
 11
1.579199945539474
 21
-0.3221914341143414
  0
LINE
  5
201
100
AcDbEntity
  8
sawtooth
  6
ByLayer
 62
  256
370
   -1
100
AcDbLine
 10
1.579199945539474
 20
-0.3221914341143414
 11
1.651347400639277
 21
-0.3603336590443073
  0
LINE
  5
202
100
AcDbEntity
  8
sawtooth
  6
ByLayer
 62
  256
370
   -1
100
AcDbLine
 10
1.651347400639277
 20
-0.3603336590443073
 11
1.605678426718119
 21
-0.292699130725003
  0
LINE
  5
203
100
AcDbEntity
  8
sawtooth
  6
ByLayer
 62
  256
370
   -1
100
AcDbLine
 10
1.605678426718119
 20
-0.292699130725003
 11
1.680837693249732
 21
-0.3244980183535998
  0
LINE
  5
204
100
AcDbEntity
  8
sawtooth
  6
ByLayer
 62
  256
370
   -1
100
AcDbLine
 10
1.680837693249732
 20
-0.3244980183535998
 11
1.629523589266275
 21
-0.2610397853781921
  0
LINE
  5
205
100
AcDbEntity
  8
sawtooth
  6
ByLayer
 62
  256
370
   -1
100
AcDbLine
 10
1.629523589266275
 20
-0.2610397853781921
 11
1.707138214316212
 21
-0.2862599078668694
  0
LINE
  5
206
100
AcDbEntity
  8
sawtooth
  6
ByLayer
 62
  256
370
   -1
100
AcDbLine
 10
1.707138214316212
 20
-0.2862599078668694
 11
1.650558891943124
 21
-0.2274477927902258
  0
LINE
  5
207
100
AcDbEntity
  8
sawtooth
  6
ByLayer
 62
  256
370
   -1
100
AcDbLine
 10
1.650558891943124
 20
-0.2274477927902258
 11
1.730054243982483
 21
-0.2459024291758221
  0
LINE
  5
208
100
AcDbEntity
  8
sawtooth
  6
ByLayer
 62
  256
370
   -1
100
AcDbLine
 10
1.730054243982483
 20
-0.2459024291758221
 11
1.668628596727251
 21
-0.1921718563214216
  0
LINE
  5
209
100
AcDbEntity
  8
sawtooth
  6
ByLayer
 62
  256
370
   -1
100
AcDbLine
 10
1.668628596727251
 20
-0.1921718563214216
 11
1.74941611998251
 21
-0.2037243749328471
  0
LINE
  5
20A
100
AcDbEntity
  8
sawtooth
  6
ByLayer
 62
  256
370
   -1
100
AcDbLine
 10
1.74941611998251
 20
-0.2037243749328471
 11
1.683598921846469
 21
-0.1554731466634302
  0
LINE
  5
20B
100
AcDbEntity
  8
sawtooth
  6
ByLayer
 62
  256
370
   -1
100
AcDbLine
 10
1.683598921846469
 20
-0.1554731466634302
 11
1.765080493760512
 21
-0.1600380166947565
  0
LINE
  5
20C
100
AcDbEntity
  8
sawtooth
  6
ByLayer
 62
  256
370
   -1
100
AcDbLine
 10
1.765080493760512
 20
-0.1600380166947565
 11
1.69535903225125
 21
-0.1176233682228107
  0
LINE
  5
20D
100
AcDbEntity
  8
sawtooth
  6
ByLayer
 62
  256
370
   -1
100
AcDbLine
 10
1.69535903225125
 20
-0.1176233682228107
 11
1.776931391773519
 21
-0.1151667929734332
  0
LINE
  5
20E
100
AcDbEntity
  8
sawtooth
  6
ByLayer
 62
  256
370
   -1
100
AcDbLine
 10
1.776931391773519
 20
-0.1151667929734332
 11
1.703821860198658
 21
-0.07890274751666498
  0
LINE
  5
20F
100
AcDbEntity
  8
sawtooth
  6
ByLayer
 62
  256
370
   -1
100
AcDbLine
 10
1.703821860198658
 20
-0.07890274751666498
 11
1.784881074118909
 21
-0.06944291461025016
  0
LINE
  5
210
100
AcDbEntity
  8
sawtooth
  6
ByLayer
 62
  256
370
   -1
100
AcDbLine
 10
1.784881074118909
 20
-0.06944291461025016
 11
1.708924749871453
 21
-0.03959795847354828
  0
LINE
  5
211
100
AcDbEntity
  8
sawtooth
  6
ByLayer
 62
  256
370
   -1
100
AcDbLine
 10
1.708924749871453
 20
-0.03959795847354828
 11
1.788870684129943
 21
-0.02320490520323089
  0
LINE
  5
212
100
AcDbEntity
  8
sawtooth
  6
ByLayer
 62
  256
370
   -1
100
AcDbLine
 10
1.788870684129943
 20
-0.02320490520323089
 11
1.710629921259843
 21
-1.128217917324727e-16
  0
LINE
  5
213
100
AcDbEntity
  8
sawtooth
  6
ByLayer
 62
  256
370
   -1
100
AcDbLine
 10
2.940944881889764
 20
0
 11
3.057751831594711
 21
0.03815127046371369
  0
LINE
  5
214
100
AcDbEntity
  8
sawtooth
  6
ByLayer
 62
  256
370
   -1
100
AcDbLine
 10
3.057751831594711
 20
0.03815127046371369
 11
2.936837897464839
 21
0.06004198700306936
  0
LINE
  5
215
100
AcDbEntity
  8
sawtooth
  6
ByLayer
 62
  256
370
   -1
100
AcDbLine
 10
2.936837897464839
 20
0.06004198700306936
 11
3.047361970279094
 21
0.1137431254073779
  0
LINE
  5
216
100
AcDbEntity
  8
sawtooth
  6
ByLayer
 62
  256
370
   -1
100
AcDbLine
 10
3.047361970279094
 20
0.1137431254073779
 11
2.924593449539187
 21
0.1189655053920737
  0
LINE
  5
217
100
AcDbEntity
  8
sawtooth
  6
ByLayer
 62
  256
370
   -1
100
AcDbLine
 10
2.924593449539187
 20
0.1189655053920737
 11
3.026775791105798
 21
0.1872161611349607
  0
LINE
  5
218
100
AcDbEntity
  8
sawtooth
  6
ByLayer
 62
  256
370
   -1
100
AcDbLine
 10
3.026775791105798
 20
0.1872161611349607
 11
2.904439629010279
 21
0.1756729215070041
  0
LINE
  5
219
100
AcDbEntity
  8
sawtooth
  6
ByLayer
 62
  256
370
   -1
100
AcDbLine
 10
2.904439629010279
 20
0.1756729215070041
 11
2.996376775642273
 21
0.2572017140071796
  0
LINE
  5
21A
100
AcDbEntity
  8
sawtooth
  6
ByLayer
 62
  256
370
   -1
100
AcDbLine
 10
2.996376775642273
 20
0.2572017140071796
 11
2.876751863422074
 21
0.2291078834801912
  0
LINE
  5
21B
100
AcDbEntity
  8
sawtooth
  6
ByLayer
 62
  256
370
   -1
100
AcDbLine
 10
2.876751863422074
 20
0.2291078834801912
 11
2.95673120002946
 21
0.3223960855917761
  0
LINE
  5
21C
100
AcDbEntity
  8
sawtooth
  6
ByLayer
 62
  256
370
   -1
100
AcDbLine
 10
2.95673120002946
 20
0.3223960855917761
 11
2.842045923460216
 21
0.2782749990729051
  0
LINE
  5
21D
100
AcDbEntity
  8
sawtooth
  6
ByLayer
 62
  256
370
   -1
100
AcDbLine
 10
2.842045923460216
 20
0.2782749990729051
 11
2.908577586328715
 21
0.3815848280986177
  0
LINE
  5
21E
100
AcDbEntity
  8
sawtooth
  6
ByLayer
 62
  256
370
   -1
100
AcDbLine
 10
2.908577586328715
 20
0.3815848280986177
 11
2.800968315120036
 21
0.322258377949409
  0
LINE
  5
21F
100
AcDbEntity
  8
sawtooth
  6
ByLayer
 62
  256
370
   -1
100
AcDbLine
 10
2.800968315120036
 20
0.322258377949409
 11
2.852812945253148
 21
0.4336653672442032
  0
LINE
  5
220
100
AcDbEntity
  8
sawtooth
  6
ByLayer
 62
  256
370
   -1
100
AcDbLine
 10
2.852812945253148
 20
0.4336653672442032
 11
2.754284236523091
 21
0.3602386929809823
  0
LINE
  5
221
100
AcDbEntity
  8
sawtooth
  6
ByLayer
 62
  256
370
   -1
100
AcDbLine
 10
2.754284236523091
 20
0.3602386929809823
 11
2.790476066555242
 21
0.4776675411244149
  0
LINE
  5
222
100
AcDbEntity
  8
sawtooth
  6
ByLayer
 62
  256
370
   -1
100
AcDbLine
 10
2.790476066555242
 20
0.4776675411244149
 11
2.702863323723973
 21
0.3915084427601024
  0
LINE
  5
223
100
AcDbEntity
  8
sawtooth
  6
ByLayer
 62
  256
370
   -1
100
AcDbLine
 10
2.702863323723973
 20
0.3915084427601024
 11
2.722728168339237
 21
0.5127716724951745
  0
LINE
  5
224
100
AcDbEntity
  8
sawtooth
  6
ByLayer
 62
  256
370
   -1
100
AcDbLine
 10
2.722728168339237
 20
0.5127716724951745
 11
2.647663451036026
 21
0.4154851310130231
  0
LINE
  5
225
100
AcDbEntity
  8
sawtooth
  6
ByLayer
 62
  256
370
   -1
100
AcDbLine
 10
2.647663451036026
 20
0.4154851310130231
 11
2.650831265764951
 21
0.5383238378086121
  0
LINE
  5
226
100
AcDbEntity
  8
sawtooth
  6
ByLayer
 62
  256
370
   -1
100
AcDbLine
 10
2.650831265764951
 20
0.5383238378086121
 11
2.589712887645256
 21
0.431722117403229
  0
LINE
  5
227
100
AcDbEntity
  8
sawtooth
  6
ByLayer
 62
  256
370
   -1
100
AcDbLine
 10
2.589712887645256
 20
0.431722117403229
 11
2.576124662093177
 21
0.5538480485714921
  0
LINE
  5
228
100
AcDbEntity
  8
sawtooth
  6
ByLayer
 62
  256
370
   -1
100
AcDbLine
 10
2.576124662093177
 20
0.5538480485714921
 11
2.530091142900957
 21
0.4399169375958283
  0
LINE
  5
229
100
AcDbEntity
  8
sawtooth
  6
ByLayer
 62
  256
370
   -1
100
AcDbLine
 10
2.530091142900957
 20
0.4399169375958283
 11
2.5
 21
0.5590551181102362
  0
LINE
  5
22A
100
AcDbEntity
  8
sawtooth
  6
ByLayer
 62
  256
370
   -1
100
AcDbLine
 10
2.5
 20
0.5590551181102362
 11
2.469908857099043
 21
0.4399169375958283
  0
LINE
  5
22B
100
AcDbEntity
  8
sawtooth
  6
ByLayer
 62
  256
370
   -1
100
AcDbLine
 10
2.469908857099043
 20
0.4399169375958283
 11
2.423875337906823
 21
0.5538480485714921
  0
LINE
  5
22C
100
AcDbEntity
  8
sawtooth
  6
ByLayer
 62
  256
370
   -1
100
AcDbLine
 10
2.423875337906823
 20
0.5538480485714921
 11
2.410287112354744
 21
0.431722117403229
  0
LINE
  5
22D
100
AcDbEntity
  8
sawtooth
  6
ByLayer
 62
  256
370
   -1
100
AcDbLine
 10
2.410287112354744
 20
0.431722117403229
 11
2.349168734235049
 21
0.5383238378086123
  0
LINE
  5
22E
100
AcDbEntity
  8
sawtooth
  6
ByLayer
 62
  256
370
   -1
100
AcDbLine
 10
2.349168734235049
 20
0.5383238378086123
 11
2.352336548963974
 21
0.4154851310130232
  0
LINE
  5
22F
100
AcDbEntity
  8
sawtooth
  6
ByLayer
 62
  256
370
   -1
100
AcDbLine
 10
2.352336548963974
 20
0.4154851310130232
 11
2.277271831660763
 21
0.5127716724951745
  0
LINE
  5
230
100
AcDbEntity
  8
sawtooth
  6
ByLayer
 62
  256
370
   -1
100
AcDbLine
 10
2.277271831660763
 20
0.5127716724951745
 11
2.297136676276027
 21
0.3915084427601024
  0
LINE
  5
231
100
AcDbEntity
  8
sawtooth
  6
ByLayer
 62
  256
370
   -1
100
AcDbLine
 10
2.297136676276027
 20
0.3915084427601024
 11
2.209523933444758
 21
0.477667541124415
  0
LINE
  5
232
100
AcDbEntity
  8
sawtooth
  6
ByLayer
 62
  256
370
   -1
100
AcDbLine
 10
2.209523933444758
 20
0.477667541124415
 11
2.245715763476909
 21
0.3602386929809823
  0
LINE
  5
233
100
AcDbEntity
  8
sawtooth
  6
ByLayer
 62
  256
370
   -1
100
AcDbLine
 10
2.245715763476909
 20
0.3602386929809823
 11
2.147187054746852
 21
0.4336653672442032
  0
LINE
  5
234
100
AcDbEntity
  8
sawtooth
  6
ByLayer
 62
  256
370
   -1
100
AcDbLine
 10
2.147187054746852
 20
0.4336653672442032
 11
2.199031684879964
 21
0.3222583779494091
  0
LINE
  5
235
100
AcDbEntity
  8
sawtooth
  6
ByLayer
 62
  256
370
   -1
100
AcDbLine
 10
2.199031684879964
 20
0.3222583779494091
 11
2.091422413671285
 21
0.3815848280986177
  0
LINE
  5
236
100
AcDbEntity
  8
sawtooth
  6
ByLayer
 62
  256
370
   -1
100
AcDbLine
 10
2.091422413671285
 20
0.3815848280986177
 11
2.157954076539784
 21
0.2782749990729053
  0
LINE
  5
237
100
AcDbEntity
  8
sawtooth
  6
ByLayer
 62
  256
370
   -1
100
AcDbLine
 10
2.157954076539784
 20
0.2782749990729053
 11
2.04326879997054
 21
0.3223960855917761
  0
LINE
  5
238
100
AcDbEntity
  8
sawtooth
  6
ByLayer
 62
  256
370
   -1
100
AcDbLine
 10
2.04326879997054
 20
0.3223960855917761
 11
2.123248136577927
 21
0.2291078834801913
  0
LINE
  5
239
100
AcDbEntity
  8
sawtooth
  6
ByLayer
 62
  256
370
   -1
100
AcDbLine
 10
2.123248136577927
 20
0.2291078834801913
 11
2.003623224357727
 21
0.2572017140071796
  0
LINE
  5
23A
100
AcDbEntity
  8
sawtooth
  6
ByLayer
 62
  256
370
   -1
100
AcDbLine
 10
2.003623224357727
 20
0.2572017140071796
 11
2.095560370989721
 21
0.1756729215070043
  0
LINE
  5
23B
100
AcDbEntity
  8
sawtooth
  6
ByLayer
 62
  256
370
   -1
100
AcDbLine
 10
2.095560370989721
 20
0.1756729215070043
 11
1.973224208894203
 21
0.1872161611349609
  0
LINE
  5
23C
100
AcDbEntity
  8
sawtooth
  6
ByLayer
 62
  256
370
   -1
100
AcDbLine
 10
1.973224208894203
 20
0.1872161611349609
 11
2.075406550460813
 21
0.1189655053920737
  0
LINE
  5
23D
100
AcDbEntity
  8
sawtooth
  6
ByLayer
 62
  256
370
   -1
100
AcDbLine
 10
2.075406550460813
 20
0.1189655053920737
 11
1.952638029720906
 21
0.1137431254073781
  0
LINE
  5
23E
100
AcDbEntity
  8
sawtooth
  6
ByLayer
 62
  256
370
   -1
100
AcDbLine
 10
1.952638029720906
 20
0.1137431254073781
 11
2.063162102535161
 21
0.06004198700306939
  0
LINE
  5
23F
100
AcDbEntity
  8
sawtooth
  6
ByLayer
 62
  256
370
   -1
100
AcDbLine
 10
2.063162102535161
 20
0.06004198700306939
 11
1.942248168405289
 21
0.03815127046371387
  0
LINE
  5
240
100
AcDbEntity
  8
sawtooth
  6
ByLayer
 62
  256
370
   -1
100
AcDbLine
 10
1.942248168405289
 20
0.03815127046371387
 11
2.059055118110236
 21
5.400017382067069e-17
  0
LINE
  5
241
100
AcDbEntity
  8
sawtooth
  6
ByLayer
 62
  256
370
   -1
100
AcDbLine
 10
2.059055118110236
 20
5.400017382067069e-17
 11
1.942248168405289
 21
-0.03815127046371349
  0
LINE
  5
242
100
AcDbEntity
  8
sawtooth
  6
ByLayer
 62
  256
370
   -1
100
AcDbLine
 10
1.942248168405289
 20
-0.03815127046371349
 11
2.063162102535161
 21
-0.06004198700306928
  0
LINE
  5
243
100
AcDbEntity
  8
sawtooth
  6
ByLayer
 62
  256
370
   -1
100
AcDbLine
 10
2.063162102535161
 20
-0.06004198700306928
 11
1.952638029720906
 21
-0.113743125407378
  0
LINE
  5
244
100
AcDbEntity
  8
sawtooth
  6
ByLayer
 62
  256
370
   -1
100
AcDbLine
 10
1.952638029720906
 20
-0.113743125407378
 11
2.075406550460813
 21
-0.1189655053920736
  0
LINE
  5
245
100
AcDbEntity
  8
sawtooth
  6
ByLayer
 62
  256
370
   -1
100
AcDbLine
 10
2.075406550460813
 20
-0.1189655053920736
 11
1.973224208894203
 21
-0.1872161611349607
  0
LINE
  5
246
100
AcDbEntity
  8
sawtooth
  6
ByLayer
 62
  256
370
   -1
100
AcDbLine
 10
1.973224208894203
 20
-0.1872161611349607
 11
2.095560370989721
 21
-0.175672921507004
  0
LINE
  5
247
100
AcDbEntity
  8
sawtooth
  6
ByLayer
 62
  256
370
   -1
100
AcDbLine
 10
2.095560370989721
 20
-0.175672921507004
 11
2.003623224357727
 21
-0.2572017140071795
  0
LINE
  5
248
100
AcDbEntity
  8
sawtooth
  6
ByLayer
 62
  256
370
   -1
100
AcDbLine
 10
2.003623224357727
 20
-0.2572017140071795
 11
2.123248136577926
 21
-0.229107883480191
  0
LINE
  5
249
100
AcDbEntity
  8
sawtooth
  6
ByLayer
 62
  256
370
   -1
100
AcDbLine
 10
2.123248136577926
 20
-0.229107883480191
 11
2.04326879997054
 21
-0.322396085591776
  0
LINE
  5
24A
100
AcDbEntity
  8
sawtooth
  6
ByLayer
 62
  256
370
   -1
100
AcDbLine
 10
2.04326879997054
 20
-0.322396085591776
 11
2.157954076539784
 21
-0.2782749990729051
  0
LINE
  5
24B
100
AcDbEntity
  8
sawtooth
  6
ByLayer
 62
  256
370
   -1
100
AcDbLine
 10
2.157954076539784
 20
-0.2782749990729051
 11
2.091422413671285
 21
-0.3815848280986175
  0
LINE
  5
24C
100
AcDbEntity
  8
sawtooth
  6
ByLayer
 62
  256
370
   -1
100
AcDbLine
 10
2.091422413671285
 20
-0.3815848280986175
 11
2.199031684879964
 21
-0.322258377949409
  0
LINE
  5
24D
100
AcDbEntity
  8
sawtooth
  6
ByLayer
 62
  256
370
   -1
100
AcDbLine
 10
2.199031684879964
 20
-0.322258377949409
 11
2.147187054746852
 21
-0.4336653672442031
  0
LINE
  5
24E
100
AcDbEntity
  8
sawtooth
  6
ByLayer
 62
  256
370
   -1
100
AcDbLine
 10
2.147187054746852
 20
-0.4336653672442031
 11
2.245715763476909
 21
-0.3602386929809823
  0
LINE
  5
24F
100
AcDbEntity
  8
sawtooth
  6
ByLayer
 62
  256
370
   -1
100
AcDbLine
 10
2.245715763476909
 20
-0.3602386929809823
 11
2.209523933444758
 21
-0.4776675411244149
  0
LINE
  5
250
100
AcDbEntity
  8
sawtooth
  6
ByLayer
 62
  256
370
   -1
100
AcDbLine
 10
2.209523933444758
 20
-0.4776675411244149
 11
2.297136676276027
 21
-0.3915084427601024
  0
LINE
  5
251
100
AcDbEntity
  8
sawtooth
  6
ByLayer
 62
  256
370
   -1
100
AcDbLine
 10
2.297136676276027
 20
-0.3915084427601024
 11
2.277271831660762
 21
-0.5127716724951744
  0
LINE
  5
252
100
AcDbEntity
  8
sawtooth
  6
ByLayer
 62
  256
370
   -1
100
AcDbLine
 10
2.277271831660762
 20
-0.5127716724951744
 11
2.352336548963974
 21
-0.4154851310130231
  0
LINE
  5
253
100
AcDbEntity
  8
sawtooth
  6
ByLayer
 62
  256
370
   -1
100
AcDbLine
 10
2.352336548963974
 20
-0.4154851310130231
 11
2.349168734235049
 21
-0.5383238378086121
  0
LINE
  5
254
100
AcDbEntity
  8
sawtooth
  6
ByLayer
 62
  256
370
   -1
100
AcDbLine
 10
2.349168734235049
 20
-0.5383238378086121
 11
2.410287112354744
 21
-0.431722117403229
  0
LINE
  5
255
100
AcDbEntity
  8
sawtooth
  6
ByLayer
 62
  256
370
   -1
100
AcDbLine
 10
2.410287112354744
 20
-0.431722117403229
 11
2.423875337906822
 21
-0.5538480485714919
  0
LINE
  5
256
100
AcDbEntity
  8
sawtooth
  6
ByLayer
 62
  256
370
   -1
100
AcDbLine
 10
2.423875337906822
 20
-0.5538480485714919
 11
2.469908857099043
 21
-0.4399169375958283
  0
LINE
  5
257
100
AcDbEntity
  8
sawtooth
  6
ByLayer
 62
  256
370
   -1
100
AcDbLine
 10
2.469908857099043
 20
-0.4399169375958283
 11
2.5
 21
-0.5590551181102362
  0
LINE
  5
258
100
AcDbEntity
  8
sawtooth
  6
ByLayer
 62
  256
370
   -1
100
AcDbLine
 10
2.5
 20
-0.5590551181102362
 11
2.530091142900957
 21
-0.4399169375958283
  0
LINE
  5
259
100
AcDbEntity
  8
sawtooth
  6
ByLayer
 62
  256
370
   -1
100
AcDbLine
 10
2.530091142900957
 20
-0.4399169375958283
 11
2.576124662093177
 21
-0.5538480485714921
  0
LINE
  5
25A
100
AcDbEntity
  8
sawtooth
  6
ByLayer
 62
  256
370
   -1
100
AcDbLine
 10
2.576124662093177
 20
-0.5538480485714921
 11
2.589712887645256
 21
-0.431722117403229
  0
LINE
  5
25B
100
AcDbEntity
  8
sawtooth
  6
ByLayer
 62
  256
370
   -1
100
AcDbLine
 10
2.589712887645256
 20
-0.431722117403229
 11
2.650831265764951
 21
-0.5383238378086123
  0
LINE
  5
25C
100
AcDbEntity
  8
sawtooth
  6
ByLayer
 62
  256
370
   -1
100
AcDbLine
 10
2.650831265764951
 20
-0.5383238378086123
 11
2.647663451036026
 21
-0.4154851310130232
  0
LINE
  5
25D
100
AcDbEntity
  8
sawtooth
  6
ByLayer
 62
  256
370
   -1
100
AcDbLine
 10
2.647663451036026
 20
-0.4154851310130232
 11
2.722728168339237
 21
-0.5127716724951745
  0
LINE
  5
25E
100
AcDbEntity
  8
sawtooth
  6
ByLayer
 62
  256
370
   -1
100
AcDbLine
 10
2.722728168339237
 20
-0.5127716724951745
 11
2.702863323723972
 21
-0.3915084427601026
  0
LINE
  5
25F
100
AcDbEntity
  8
sawtooth
  6
ByLayer
 62
  256
370
   -1
100
AcDbLine
 10
2.702863323723972
 20
-0.3915084427601026
 11
2.790476066555242
 21
-0.477667541124415
  0
LINE
  5
260
100
AcDbEntity
  8
sawtooth
  6
ByLayer
 62
  256
370
   -1
100
AcDbLine
 10
2.790476066555242
 20
-0.477667541124415
 11
2.754284236523091
 21
-0.3602386929809824
  0
LINE
  5
261
100
AcDbEntity
  8
sawtooth
  6
ByLayer
 62
  256
370
   -1
100
AcDbLine
 10
2.754284236523091
 20
-0.3602386929809824
 11
2.852812945253147
 21
-0.4336653672442032
  0
LINE
  5
262
100
AcDbEntity
  8
sawtooth
  6
ByLayer
 62
  256
370
   -1
100
AcDbLine
 10
2.852812945253147
 20
-0.4336653672442032
 11
2.800968315120036
 21
-0.3222583779494093
  0
LINE
  5
263
100
AcDbEntity
  8
sawtooth
  6
ByLayer
 62
  256
370
   -1
100
AcDbLine
 10
2.800968315120036
 20
-0.3222583779494093
 11
2.908577586328715
 21
-0.3815848280986178
  0
LINE
  5
264
100
AcDbEntity
  8
sawtooth
  6
ByLayer
 62
  256
370
   -1
100
AcDbLine
 10
2.908577586328715
 20
-0.3815848280986178
 11
2.842045923460216
 21
-0.2782749990729053
  0
LINE
  5
265
100
AcDbEntity
  8
sawtooth
  6
ByLayer
 62
  256
370
   -1
100
AcDbLine
 10
2.842045923460216
 20
-0.2782749990729053
 11
2.95673120002946
 21
-0.3223960855917762
  0
LINE
  5
266
100
AcDbEntity
  8
sawtooth
  6
ByLayer
 62
  256
370
   -1
100
AcDbLine
 10
2.95673120002946
 20
-0.3223960855917762
 11
2.876751863422074
 21
-0.2291078834801912
  0
LINE
  5
267
100
AcDbEntity
  8
sawtooth
  6
ByLayer
 62
  256
370
   -1
100
AcDbLine
 10
2.876751863422074
 20
-0.2291078834801912
 11
2.996376775642273
 21
-0.2572017140071799
  0
LINE
  5
268
100
AcDbEntity
  8
sawtooth
  6
ByLayer
 62
  256
370
   -1
100
AcDbLine
 10
2.996376775642273
 20
-0.2572017140071799
 11
2.904439629010279
 21
-0.1756729215070043
  0
LINE
  5
269
100
AcDbEntity
  8
sawtooth
  6
ByLayer
 62
  256
370
   -1
100
AcDbLine
 10
2.904439629010279
 20
-0.1756729215070043
 11
3.026775791105797
 21
-0.1872161611349609
  0
LINE
  5
26A
100
AcDbEntity
  8
sawtooth
  6
ByLayer
 62
  256
370
   -1
100
AcDbLine
 10
3.026775791105797
 20
-0.1872161611349609
 11
2.924593449539187
 21
-0.1189655053920737
  0
LINE
  5
26B
100
AcDbEntity
  8
sawtooth
  6
ByLayer
 62
  256
370
   -1
100
AcDbLine
 10
2.924593449539187
 20
-0.1189655053920737
 11
3.047361970279094
 21
-0.1137431254073779
  0
LINE
  5
26C
100
AcDbEntity
  8
sawtooth
  6
ByLayer
 62
  256
370
   -1
100
AcDbLine
 10
3.047361970279094
 20
-0.1137431254073779
 11
2.936837897464839
 21
-0.06004198700306963
  0
LINE
  5
26D
100
AcDbEntity
  8
sawtooth
  6
ByLayer
 62
  256
370
   -1
100
AcDbLine
 10
2.936837897464839
 20
-0.06004198700306963
 11
3.057751831594711
 21
-0.03815127046371394
  0
LINE
  5
26E
100
AcDbEntity
  8
sawtooth
  6
ByLayer
 62
  256
370
   -1
100
AcDbLine
 10
3.057751831594711
 20
-0.03815127046371394
 11
2.940944881889764
 21
-1.080003476413414e-16
  0
LWPOLYLINE
  5
26F
100
AcDbEntity
  8
sawtooth
  6
ByLayer
 62
  256
370
   -1
100
AcDbPolyline
 90
    4
 70
    1
 43
0
 10
-0.9000000000000002
 20
0.9000000000000001
 10
3.4
 20
0.9000000000000001
 10
3.4
 20
-0.9
 10
-0.9000000000000002
 20
-0.9
  0
ENDSEC
  0
SECTION
  2
OBJECTS
  0
DICTIONARY
  5
C
330
0
100
AcDbDictionary
281
    1
  3
ACAD_GROUP
350
D
  0
DICTIONARY
  5
D
330
C
100
AcDbDictionary
281
    1
  0
ENDSEC
  0
EOF
