<?xml version="1.0" encoding="UTF-8" standalone="no"?>
<!-- Created with Inkscape (http://www.inkscape.org/) -->

<svg
   xmlns:dc="http://purl.org/dc/elements/1.1/"
   xmlns:cc="http://creativecommons.org/ns#"
   xmlns:rdf="http://www.w3.org/1999/02/22-rdf-syntax-ns#"
   xmlns:svg="http://www.w3.org/2000/svg"
   xmlns="http://www.w3.org/2000/svg"
   xmlns:sodipodi="http://sodipodi.sourceforge.net/DTD/sodipodi-0.dtd"
   xmlns:inkscape="http://www.inkscape.org/namespaces/inkscape"
   width="24in"
   height="18in"
   viewBox="0 0 2160 1620"
   id="svg2"
   version="1.1"
   inkscape:version="0.91 r13725"
   sodipodi:docname="1p5mm_clear.svg">
  <defs
     id="defs4">
    <marker
       orient="auto"
       id="DistanceX"
       style="overflow:visible"
       refX="0.0"
       refY="0.0">
      <path
         id="path3343"
         d="M 3,-3 L -3,3 M 0,-5 L  0,5"
         style="stroke:#000000; stroke-width:0.5" />
    </marker>
    <pattern
       id="Hatch"
       x="0"
       y="0"
       patternUnits="userSpaceOnUse"
       width="8"
       height="8">
      <path
         id="path3346"
         d="M8 4 l-4,4"
         stroke-width="0.25"
         stroke="#000000"
         linecap="square" />
      <path
         id="path3348"
         d="M6 2 l-4,4"
         stroke-width="0.25"
         stroke="#000000"
         linecap="square" />
      <path
         id="path3350"
         d="M4 0 l-4,4"
         stroke-width="0.25"
         stroke="#000000"
         linecap="square" />
    </pattern>
    <symbol
       id="*Model_Space" />
    <symbol
       id="*Paper_Space" />
    <marker
       orient="auto"
       id="DistanceX-9"
       style="overflow:visible"
       refX="0.0"
       refY="0.0">
      <path
         id="path3380"
         d="M 3,-3 L -3,3 M 0,-5 L  0,5"
         style="stroke:#000000; stroke-width:0.5" />
    </marker>
    <pattern
       id="Hatch-4"
       x="0"
       y="0"
       patternUnits="userSpaceOnUse"
       width="8"
       height="8">
      <path
         id="path3383"
         d="M8 4 l-4,4"
         stroke-width="0.25"
         stroke="#000000"
         linecap="square" />
      <path
         id="path3385"
         d="M6 2 l-4,4"
         stroke-width="0.25"
         stroke="#000000"
         linecap="square" />
      <path
         id="path3387"
         d="M4 0 l-4,4"
         stroke-width="0.25"
         stroke="#000000"
         linecap="square" />
    </pattern>
    <symbol
       id="*Model_Space-5" />
    <symbol
       id="*Paper_Space-8" />
  </defs>
  <sodipodi:namedview
     id="base"
     pagecolor="#ffffff"
     bordercolor="#666666"
     borderopacity="1.0"
     inkscape:pageopacity="0.0"
     inkscape:pageshadow="2"
     inkscape:zoom="0.35"
     inkscape:cx="682.76878"
     inkscape:cy="869.77995"
     inkscape:document-units="px"
     inkscape:current-layer="layer1"
     showgrid="false"
     units="in"
     inkscape:window-width="1600"
     inkscape:window-height="837"
     inkscape:window-x="-8"
     inkscape:window-y="-8"
     inkscape:window-maximized="1" />
  <metadata
     id="metadata7">
    <rdf:RDF>
      <cc:Work
         rdf:about="">
        <dc:format>image/svg+xml</dc:format>
        <dc:type
           rdf:resource="http://purl.org/dc/dcmitype/StillImage" />
        <dc:title />
      </cc:Work>
    </rdf:RDF>
  </metadata>
  <g
     inkscape:label="Layer 1"
     inkscape:groupmode="layer"
     id="layer1"
     transform="translate(0,567.63785)">
    <path
       id="path3395"
       d="m 54.714286,-431.92356 a 9,9 0 0 0 -9,9"
       style="fill:none;stroke:#000000;stroke-linecap:round;stroke-opacity:1;stroke-width:0.001;stroke-miterlimit:4;stroke-dasharray:none"
       inkscape:connector-curvature="0" />
    <path
       id="path3397"
       d="m 144.71429,-521.92357 a 9,9 0 0 0 -9,9"
       style="fill:none;stroke:#000000;stroke-linecap:round;stroke-opacity:1;stroke-width:0.001;stroke-miterlimit:4;stroke-dasharray:none"
       inkscape:connector-curvature="0" />
    <path
       id="path3399"
       d="m 1035.7143,-512.92357 a 9,9 0 0 0 -9,-9"
       style="fill:none;stroke:#000000;stroke-linecap:round;stroke-opacity:1;stroke-width:0.001;stroke-miterlimit:4;stroke-dasharray:none"
       inkscape:connector-curvature="0" />
    <path
       id="path3401"
       d="m 1125.7143,-422.92356 a 9,9 0 0 0 -9,-9"
       style="fill:none;stroke:#000000;stroke-linecap:round;stroke-opacity:1;stroke-width:0.001;stroke-miterlimit:4;stroke-dasharray:none"
       inkscape:connector-curvature="0" />
    <path
       id="path3403"
       d="m 1116.7143,468.07644 a 9,9 0 0 0 9,-9"
       style="fill:none;stroke:#000000;stroke-linecap:round;stroke-opacity:1;stroke-width:0.001;stroke-miterlimit:4;stroke-dasharray:none"
       inkscape:connector-curvature="0" />
    <path
       id="path3405"
       d="m 1026.7143,558.07643 a 9,9 0 0 0 9,-9"
       style="fill:none;stroke:#000000;stroke-linecap:round;stroke-opacity:1;stroke-width:0.001;stroke-miterlimit:4;stroke-dasharray:none"
       inkscape:connector-curvature="0" />
    <path
       id="path3407"
       d="m 135.71429,549.07643 a 9,9 0 0 0 9,9"
       style="fill:none;stroke:#000000;stroke-linecap:round;stroke-opacity:1;stroke-width:0.001;stroke-miterlimit:4;stroke-dasharray:none"
       inkscape:connector-curvature="0" />
    <path
       id="path3409"
       d="m 45.714286,459.07644 a 9,9 0 0 0 9,9"
       style="fill:none;stroke:#000000;stroke-linecap:round;stroke-opacity:1;stroke-width:0.001;stroke-miterlimit:4;stroke-dasharray:none"
       inkscape:connector-curvature="0" />
    <path
       id="path3411"
       d="m 1116.7143,468.07644 -81,0"
       style="fill:none;stroke:#000000;stroke-linecap:round;stroke-opacity:1;stroke-width:0.001;stroke-miterlimit:4;stroke-dasharray:none"
       inkscape:connector-curvature="0" />
    <path
       id="path3413"
       d="m 1035.7143,468.07644 0,80.99999"
       style="fill:none;stroke:#000000;stroke-linecap:round;stroke-opacity:1;stroke-width:0.001;stroke-miterlimit:4;stroke-dasharray:none"
       inkscape:connector-curvature="0" />
    <path
       id="path3415"
       d="m 1026.7143,558.07643 -882.00001,0"
       style="fill:none;stroke:#000000;stroke-linecap:round;stroke-opacity:1;stroke-width:0.001;stroke-miterlimit:4;stroke-dasharray:none"
       inkscape:connector-curvature="0" />
    <path
       id="path3417"
       d="m 135.71429,549.07643 0,-80.99999"
       style="fill:none;stroke:#000000;stroke-linecap:round;stroke-opacity:1;stroke-width:0.001;stroke-miterlimit:4;stroke-dasharray:none"
       inkscape:connector-curvature="0" />
    <path
       id="path3419"
       d="m 135.71429,468.07644 -81.000004,0"
       style="fill:none;stroke:#000000;stroke-linecap:round;stroke-opacity:1;stroke-width:0.001;stroke-miterlimit:4;stroke-dasharray:none"
       inkscape:connector-curvature="0" />
    <path
       id="path3421"
       d="m 45.714286,459.07644 0,-882"
       style="fill:none;stroke:#000000;stroke-linecap:round;stroke-opacity:1;stroke-width:0.001;stroke-miterlimit:4;stroke-dasharray:none"
       inkscape:connector-curvature="0" />
    <path
       id="path3423"
       d="m 54.714286,-431.92356 81.000004,0"
       style="fill:none;stroke:#000000;stroke-linecap:round;stroke-opacity:1;stroke-width:0.001;stroke-miterlimit:4;stroke-dasharray:none"
       inkscape:connector-curvature="0" />
    <path
       id="path3425"
       d="m 135.71429,-431.92356 0,-81.00001"
       style="fill:none;stroke:#000000;stroke-linecap:round;stroke-opacity:1;stroke-width:0.001;stroke-miterlimit:4;stroke-dasharray:none"
       inkscape:connector-curvature="0" />
    <path
       id="path3427"
       d="m 1035.7143,-512.92357 0,81.00001"
       style="fill:none;stroke:#000000;stroke-linecap:round;stroke-opacity:1;stroke-width:0.001;stroke-miterlimit:4;stroke-dasharray:none"
       inkscape:connector-curvature="0" />
    <path
       id="path3429"
       d="m 144.71429,-521.92357 882.00001,0"
       style="fill:none;stroke:#000000;stroke-linecap:round;stroke-opacity:1;stroke-width:0.001;stroke-miterlimit:4;stroke-dasharray:none"
       inkscape:connector-curvature="0" />
    <path
       id="path3431"
       d="m 1035.7143,-431.92356 81,0"
       style="fill:none;stroke:#000000;stroke-linecap:round;stroke-opacity:1;stroke-width:0.001;stroke-miterlimit:4;stroke-dasharray:none"
       inkscape:connector-curvature="0" />
    <path
       id="path3433"
       d="m 1125.7143,-422.92356 0,882"
       style="fill:none;stroke:#000000;stroke-linecap:round;stroke-opacity:1;stroke-width:0.001;stroke-miterlimit:4;stroke-dasharray:none"
       inkscape:connector-curvature="0" />
    <path
       id="path3435"
       d="m 195.56429,-476.92356 a 14.85,14.85 0 1 0 -29.7,0 14.85,14.85 0 0 0 29.7,0 z"
       style="fill:none;stroke:#000000;stroke-linecap:round;stroke-opacity:1;stroke-width:0.001;stroke-miterlimit:4;stroke-dasharray:none"
       inkscape:connector-curvature="0" />
    <path
       id="path3437"
       d="m 1005.5643,-476.92356 a 14.85,14.85 0 1 0 -29.70001,0 14.85,14.85 0 0 0 29.70001,0 z"
       style="fill:none;stroke:#000000;stroke-linecap:round;stroke-opacity:1;stroke-width:0.001;stroke-miterlimit:4;stroke-dasharray:none"
       inkscape:connector-curvature="0" />
    <path
       id="path3439"
       d="m 195.56429,513.07643 a 14.85,14.85 0 1 0 -29.7,0 14.85,14.85 0 0 0 29.7,0 z"
       style="fill:none;stroke:#000000;stroke-linecap:round;stroke-opacity:1;stroke-width:0.001;stroke-miterlimit:4;stroke-dasharray:none"
       inkscape:connector-curvature="0" />
    <path
       id="path3441"
       d="m 1005.5643,513.07643 a 14.85,14.85 0 1 0 -29.70001,0 14.85,14.85 0 0 0 29.70001,0 z"
       style="fill:none;stroke:#000000;stroke-linecap:round;stroke-opacity:1;stroke-width:0.001;stroke-miterlimit:4;stroke-dasharray:none"
       inkscape:connector-curvature="0" />
    <path
       id="path3443"
       d="m 95.934286,-386.92356 a 5.22,5.22 0 1 0 -10.44,0 5.22,5.22 0 1 0 10.44,0 z"
       style="fill:none;stroke:#000000;stroke-linecap:round;stroke-opacity:1;stroke-width:0.001;stroke-miterlimit:4;stroke-dasharray:none"
       inkscape:connector-curvature="0" />
    <path
       id="path3445"
       d="m 1085.9343,-386.92356 a 5.22,5.22 0 1 0 -10.44,0 5.22,5.22 0 0 0 10.44,0 z"
       style="fill:none;stroke:#000000;stroke-linecap:round;stroke-opacity:1;stroke-width:0.001;stroke-miterlimit:4;stroke-dasharray:none"
       inkscape:connector-curvature="0" />
    <path
       id="path3447"
       d="m 95.934286,423.07644 a 5.22,5.22 0 1 0 -10.44,0 5.22,5.22 0 1 0 10.44,0 z"
       style="fill:none;stroke:#000000;stroke-linecap:round;stroke-opacity:1;stroke-width:0.001;stroke-miterlimit:4;stroke-dasharray:none"
       inkscape:connector-curvature="0" />
    <path
       id="path3449"
       d="m 1085.9343,423.07644 a 5.22,5.22 0 1 0 -10.44,0 5.22,5.22 0 0 0 10.44,0 z"
       style="fill:none;stroke:#000000;stroke-linecap:round;stroke-opacity:1;stroke-width:0.001;stroke-miterlimit:4;stroke-dasharray:none"
       inkscape:connector-curvature="0" />
    <path
       id="path3451"
       d="m 590.93422,378.07631 a 5.22,5.22 0 1 0 -10.44,0 5.22,5.22 0 0 0 10.44,0 z"
       style="fill:none;stroke:#000000;stroke-linecap:round;stroke-opacity:1;stroke-width:0.001;stroke-miterlimit:4;stroke-dasharray:none"
       inkscape:connector-curvature="0" />
    <path
       id="path3453"
       d="m 902.70336,-161.92344 a 5.22,5.22 0 1 0 -10.44,0 5.22,5.22 0 0 0 10.44,0 z"
       style="fill:none;stroke:#000000;stroke-linecap:round;stroke-opacity:1;stroke-width:0.001;stroke-miterlimit:4;stroke-dasharray:none"
       inkscape:connector-curvature="0" />
    <path
       id="path3455"
       d="m 590.93429,-341.92357 a 5.22,5.22 0 1 0 -10.44,0 5.22,5.22 0 0 0 10.44,0 z"
       style="fill:none;stroke:#000000;stroke-linecap:round;stroke-opacity:1;stroke-width:0.001;stroke-miterlimit:4;stroke-dasharray:none"
       inkscape:connector-curvature="0" />
    <path
       id="path3457"
       d="m 279.16529,-161.92356 a 5.22,5.22 0 1 0 -10.44,0 5.22,5.22 0 1 0 10.44,0 z"
       style="fill:none;stroke:#000000;stroke-linecap:round;stroke-opacity:1;stroke-width:0.001;stroke-miterlimit:4;stroke-dasharray:none"
       inkscape:connector-curvature="0" />
  </g>
</svg>
